<?xml version="1.0" standalone="no"?>
<!DOCTYPE svg PUBLIC "-//W3C//DTD SVG 20010904//EN"
 "http://www.w3.org/TR/2001/REC-SVG-20010904/DTD/svg10.dtd">
<svg version="1.0" xmlns="http://www.w3.org/2000/svg"
 width="768.000000pt" height="768.000000pt" viewBox="0 0 768.000000 768.000000"
 preserveAspectRatio="xMidYMid meet">
<metadata>
Created by potrace 1.14, written by Peter Selinger 2001-2017
</metadata>
<g transform="translate(0.000000,768.000000) scale(0.100000,-0.100000)"
fill="#000000" stroke="none">
<path d="M3510 7629 c-890 -84 -1675 -447 -2309 -1064 -305 -297 -536 -613
-731 -1000 -212 -419 -328 -809 -386 -1295 -24 -200 -24 -609 0 -815 131
-1140 732 -2123 1681 -2751 512 -339 1085 -541 1715 -606 158 -16 569 -16 720
1 471 51 865 162 1275 360 1117 539 1895 1591 2089 2823 42 270 55 692 28 948
-92 870 -454 1649 -1052 2264 -605 622 -1352 998 -2220 1117 -166 23 -647 34
-810 18z m856 -545 c18 -8 37 -28 44 -43 6 -15 55 -212 109 -437 80 -334 104
-420 131 -467 38 -68 44 -125 16 -156 -15 -17 -31 -21 -75 -21 -71 0 -314 35
-340 49 -41 23 -38 82 6 135 34 40 53 88 47 113 -6 23 -6 23 -188 49 -115 16
-120 16 -133 -2 -19 -26 -16 -79 7 -116 28 -45 26 -89 -5 -118 -22 -21 -30
-22 -90 -16 -122 12 -227 35 -246 52 -11 9 -19 30 -19 47 0 30 28 64 117 137
37 30 63 77 201 355 88 176 172 346 187 378 34 72 65 90 144 82 30 -3 69 -12
87 -21z m-1176 -90 c181 -71 279 -267 225 -450 -38 -128 -142 -218 -324 -279
-61 -20 -111 -42 -110 -48 0 -7 8 -34 18 -62 15 -42 27 -56 73 -87 63 -42 84
-80 65 -119 -10 -20 -44 -35 -187 -83 -190 -64 -213 -65 -238 -13 -14 28 -9
58 21 127 15 35 14 40 -84 345 -54 171 -104 319 -109 330 -6 11 -31 31 -54 44
-26 13 -51 37 -62 57 -17 31 -17 37 -4 61 13 24 43 36 225 95 315 103 339 109
425 104 41 -2 95 -12 120 -22z m2366 -296 c16 -12 77 -65 136 -116 85 -74 110
-102 119 -132 13 -44 16 -35 -87 -329 -36 -101 -63 -185 -62 -187 2 -1 95 47
208 108 218 118 262 133 316 105 30 -17 233 -189 246 -210 29 -45 -12 -101
-81 -112 -20 -4 -46 -8 -58 -11 -13 -2 -107 -104 -235 -251 -118 -137 -218
-255 -223 -263 -6 -8 -12 -46 -15 -84 -4 -61 -8 -71 -32 -89 -24 -18 -31 -19
-54 -8 -46 21 -284 233 -291 259 -9 37 25 75 78 85 24 5 54 10 66 13 14 3 92
85 202 212 98 114 178 209 176 210 -2 2 -133 -67 -291 -153 -158 -87 -305
-165 -327 -175 -48 -22 -86 -14 -107 23 -16 29 -20 18 130 450 39 115 70 210
67 213 -4 4 -282 -314 -302 -345 -5 -9 -10 -39 -10 -66 -2 -97 -41 -144 -100
-117 -14 6 -65 48 -115 93 -82 73 -91 84 -88 112 4 39 56 77 105 77 19 0 43 4
53 10 16 9 425 476 445 509 4 8 9 43 10 78 1 51 6 67 25 88 29 31 59 32 96 3z
m-3835 -587 c79 -32 259 -106 399 -163 174 -72 273 -107 313 -112 110 -12 155
-46 142 -107 -8 -36 -222 -268 -263 -285 -49 -21 -86 7 -108 82 -18 62 -48
104 -74 104 -19 0 -220 -205 -220 -224 1 -31 62 -76 103 -76 35 0 82 -24 91
-45 17 -45 5 -67 -86 -161 -99 -102 -137 -129 -169 -119 -35 11 -49 49 -59
151 l-9 99 -190 359 c-105 198 -194 369 -197 381 -10 41 50 130 111 163 36 20
70 13 216 -47z m2374 -515 c631 -97 1157 -523 1378 -1116 78 -210 109 -384
108 -620 0 -308 -56 -537 -197 -810 -103 -199 -247 -382 -408 -518 -252 -211
-508 -332 -841 -398 -128 -26 -472 -26 -600 0 -455 90 -828 319 -1096 671
-446 588 -470 1414 -60 2028 283 423 738 707 1226 766 50 6 104 13 120 15 52
7 276 -4 370 -18z m-3062 -403 c-130 -282 -222 -580 -267 -873 -61 -391 -38
-899 56 -1245 161 -595 424 -1059 828 -1465 469 -472 1055 -775 1710 -884 630
-105 1268 -12 1835 268 306 152 553 326 789 555 543 530 859 1180 947 1951 14
123 14 508 0 630 -46 393 -151 761 -307 1073 l-34 67 27 11 c55 21 64 12 124
-121 137 -302 219 -589 265 -925 25 -183 25 -608 0 -790 -99 -723 -403 -1342
-906 -1845 -487 -487 -1119 -803 -1815 -909 -295 -45 -692 -43 -980 5 -351 58
-614 143 -927 300 -430 215 -800 523 -1093 909 -627 825 -809 1907 -485 2895
76 234 185 475 217 483 65 17 65 14 16 -90z m268 -239 c103 -102 107 -108 97
-135 -12 -35 -17 -36 -186 -43 -134 -5 -134 -5 -128 17 3 12 6 25 6 29 0 4 17
8 37 10 36 3 38 6 62 66 l24 62 -22 24 c-16 17 -20 30 -15 50 3 14 9 26 12 26
4 0 55 -48 113 -106z m5178 70 c28 -20 60 -88 61 -127 0 -24 -4 -28 -22 -25
-16 2 -24 11 -26 28 -5 42 -24 80 -39 80 -12 0 -13 -11 -8 -63 8 -73 -6 -97
-55 -97 -37 0 -80 53 -87 110 -5 35 -3 40 15 40 15 0 21 -9 26 -34 7 -34 37
-71 49 -59 4 3 4 34 1 68 -6 57 -5 63 17 79 29 20 39 20 68 0z m107 -229 c4
-14 5 -27 3 -29 -14 -12 -194 -64 -200 -58 -4 4 -9 16 -11 27 -2 16 11 24 87
51 112 40 113 40 121 9z m-5468 -81 c2 -1 -6 -17 -17 -35 -22 -37 -27 -74 -11
-84 6 -3 18 8 28 25 45 83 81 101 122 60 25 -25 25 -72 0 -128 -17 -38 -22
-42 -40 -32 -24 13 -24 19 -5 44 20 26 20 76 0 76 -8 0 -22 -15 -31 -32 -9
-18 -23 -41 -32 -50 -19 -23 -65 -23 -83 -1 -20 24 -15 92 10 141 19 38 24 42
39 31 9 -8 18 -14 20 -15z m5222 7 c14 -27 2 -51 -26 -51 -17 0 -25 7 -30 24
-3 14 -3 30 1 35 10 18 44 12 55 -8z m-4690 -4 c0 -1 -14 -43 -31 -92 -41
-123 -76 -258 -100 -395 -30 -167 -37 -500 -15 -681 111 -887 699 -1636 1532
-1952 412 -157 897 -192 1327 -96 594 131 1144 530 1470 1064 231 381 348 794
349 1240 0 276 -39 525 -123 773 -36 108 -38 118 -22 130 9 6 29 12 43 12 25
0 29 -7 63 -107 87 -259 127 -504 127 -773 0 -378 -78 -713 -245 -1055 -125
-258 -280 -470 -491 -675 -370 -358 -806 -574 -1346 -667 -149 -26 -608 -26
-758 0 -511 87 -941 303 -1298 652 -388 377 -612 812 -708 1370 -25 145 -25
538 0 690 40 249 119 522 158 550 19 12 68 22 68 12z m4975 -47 c3 -11 3 -25
0 -31 -4 -5 1 -19 10 -29 25 -28 25 -98 0 -116 -45 -33 -90 -7 -111 64 -6 20
-17 37 -25 37 -20 0 -23 -59 -4 -88 14 -21 14 -26 1 -36 -8 -7 -20 -10 -27 -6
-18 12 -39 71 -39 113 0 50 27 76 100 95 75 21 88 20 95 -3z m-5577 -169 c12
-7 11 -14 -3 -40 -17 -34 -17 -87 0 -85 6 1 21 23 35 50 32 62 52 74 87 54 37
-21 46 -63 28 -127 -17 -57 -17 -58 -45 -43 -17 9 -17 12 -4 40 9 16 14 40 12
52 -6 39 -27 31 -49 -18 -23 -55 -33 -64 -71 -64 -41 0 -62 38 -54 97 6 45 29
93 44 93 4 0 13 -4 20 -9z m5644 -100 c5 -31 -9 -40 -57 -41 -38 0 -93 -21
-99 -37 -4 -9 1 -27 10 -40 15 -24 19 -25 90 -18 71 6 74 6 74 -14 0 -12 1
-24 3 -28 1 -4 -29 -12 -67 -18 -78 -11 -101 -32 -85 -74 9 -23 12 -24 89 -18
62 4 80 2 80 -8 0 -7 3 -20 6 -28 4 -12 -12 -17 -83 -26 -139 -19 -128 -21
-129 19 0 19 -6 48 -12 63 -15 35 -15 50 0 81 9 21 8 29 -5 43 -40 45 -28 122
21 142 15 6 54 15 87 20 33 5 63 9 66 10 4 0 9 -12 11 -28z m-5560 -160 c30
-26 33 -35 33 -85 0 -47 -4 -59 -28 -84 -72 -75 -187 -29 -187 75 0 79 38 122
107 123 33 0 50 -7 75 -29z m-9 -281 c37 -41 39 -116 3 -156 -23 -28 -23 -28
-35 -7 -9 17 -7 28 6 51 16 28 16 31 0 56 -23 34 -60 43 -92 22 -29 -19 -34
-66 -10 -86 17 -14 3 -50 -20 -50 -18 0 -45 50 -45 83 0 112 121 167 193 87z
m5355 -28 c-2 -21 -8 -27 -28 -27 -18 0 -26 6 -28 23 -5 34 15 54 40 41 13 -7
18 -19 16 -37z m260 17 c3 -25 0 -26 -50 -32 -29 -4 -79 -7 -110 -7 -58 0 -58
0 -58 30 l0 29 93 4 c126 4 122 5 125 -24z m-25 -109 c24 0 27 -4 27 -31 l0
-32 -67 6 c-81 6 -103 -3 -103 -43 0 -41 32 -60 102 -60 58 0 58 0 58 -30 0
-29 -2 -30 -42 -30 -24 0 -73 3 -110 7 -63 5 -68 8 -68 29 0 13 4 24 10 24 6
0 7 18 4 44 -13 93 22 130 111 121 28 -3 62 -5 78 -5z m-5465 -102 c18 -18 14
-46 -7 -58 -34 -18 -67 30 -39 58 7 7 17 12 23 12 6 0 16 -5 23 -12z m-90 -29
c3 -25 1 -26 -59 -33 -34 -3 -84 -6 -110 -6 -48 0 -49 1 -49 30 l0 29 78 4
c133 6 137 5 140 -24z m-89 -143 c6 -17 11 -42 13 -55 4 -33 25 -38 39 -8 8
18 7 32 -5 60 -14 34 -14 38 3 47 24 13 37 -3 50 -60 10 -46 -2 -93 -30 -117
-12 -9 -159 -36 -165 -30 -1 1 -5 14 -9 30 -5 18 -3 27 4 27 8 0 7 8 -3 22 -9
12 -16 39 -16 59 0 80 96 100 119 25z m5653 -36 c-3 -24 -10 -31 -37 -36 -30
-5 -34 -10 -40 -52 -3 -26 -9 -57 -12 -68 -3 -17 3 -26 26 -40 25 -15 29 -22
24 -43 -3 -15 -7 -28 -9 -29 -5 -7 -246 153 -251 166 -3 6 -3 23 1 35 5 21 22
28 133 59 165 46 171 46 165 8z m-5536 -204 c29 -29 34 -41 34 -83 0 -28 -6
-57 -15 -69 -15 -19 -15 -19 -27 1 -7 11 -12 40 -13 65 0 39 -3 45 -28 54 -21
8 -35 7 -55 -5 -35 -19 -42 -71 -13 -91 21 -15 19 -58 -2 -58 -16 0 -57 41
-57 57 0 21 -27 15 -33 -7 -12 -45 -67 -13 -67 39 0 27 16 27 23 1 6 -23 27
-27 27 -5 0 8 9 15 20 15 15 0 20 7 20 26 0 16 13 39 34 60 28 28 42 34 76 34
34 0 48 -6 76 -34z m5279 -187 c4 -5 -1 -26 -10 -45 -29 -62 0 -103 31 -42 23
46 54 78 76 78 30 0 58 -36 58 -75 0 -39 -38 -125 -55 -125 -29 0 -31 22 -7
71 18 35 22 53 14 61 -15 15 -29 3 -53 -43 -41 -82 -119 -66 -119 24 0 68 43
132 65 96z m-5187 -93 c12 -42 5 -80 -17 -100 -10 -9 -50 -27 -89 -40 l-72
-25 -6 23 c-3 12 -4 26 -2 32 1 5 -6 22 -17 38 -25 37 -25 94 0 112 45 33 92
6 114 -67 13 -42 29 -47 42 -12 5 14 1 34 -11 59 -16 29 -17 40 -8 52 10 12
16 10 35 -12 12 -14 26 -41 31 -60z m66 69 c11 -11 13 -26 9 -47 -5 -23 -2
-34 12 -45 27 -19 6 -39 -24 -24 -17 9 -21 21 -21 56 0 33 -4 45 -15 45 -8 0
-15 7 -15 15 0 20 34 19 54 0z m5157 -221 c34 -33 44 -73 29 -119 -16 -50 -62
-85 -112 -85 -52 0 -108 51 -108 99 0 116 114 179 191 105z m-5173 -40 c32
-22 52 -67 52 -114 0 -92 -110 -135 -181 -72 -27 24 -33 37 -37 85 -4 52 -2
58 26 87 25 24 39 30 74 30 24 0 54 -7 66 -16z m4995 -190 c67 -36 123 -67
125 -69 7 -6 -23 -45 -34 -45 -6 0 -11 -12 -11 -26 0 -53 -52 -104 -106 -104
-33 0 -89 39 -106 74 -18 38 0 100 35 123 l26 17 -46 23 c-25 13 -46 26 -46
29 0 13 22 44 31 44 6 0 66 -30 132 -66z m-4753 -125 c0 -4 -18 -46 -40 -94
-22 -48 -40 -89 -40 -91 0 -2 46 -4 103 -4 92 0 103 -2 115 -20 11 -19 4 -26
-103 -95 -63 -41 -119 -75 -123 -75 -5 0 -14 11 -19 23 -10 22 -7 27 53 63 35
21 64 42 64 47 0 4 -36 7 -79 7 -44 0 -82 3 -85 8 -2 4 11 40 29 80 19 39 32
72 30 72 -2 0 -34 -19 -70 -41 -63 -40 -66 -41 -80 -23 -8 11 -13 22 -12 26 1
4 54 41 117 82 103 68 116 74 128 59 6 -9 12 -20 12 -24z m4596 -260 c32 -23
61 -43 63 -45 10 -9 -23 -52 -35 -47 -10 3 -14 -3 -14 -20 0 -30 -35 -73 -66
-81 -13 -4 -31 1 -48 15 -23 18 -27 27 -22 51 3 16 15 42 26 58 25 35 25 50 1
50 -25 0 -49 -24 -57 -56 -6 -22 -32 -33 -47 -18 -10 10 21 76 50 107 39 39
77 36 149 -14z m-4416 -109 c33 -33 40 -47 40 -78 0 -42 -11 -57 -85 -118 -46
-37 -48 -38 -61 -19 -8 11 -12 25 -10 31 3 7 -6 15 -20 18 -24 6 -64 58 -64
83 0 7 10 24 23 39 30 35 66 28 112 -23 32 -35 55 -38 55 -6 0 9 -16 30 -35
49 -22 21 -33 38 -29 48 10 26 31 19 74 -24z m4200 -51 c-19 -35 -10 -57 42
-103 l53 -46 -22 -22 -22 -21 -73 63 c-40 35 -77 67 -82 72 -13 11 23 48 40
41 10 -3 14 2 14 19 0 36 20 51 42 32 13 -12 15 -21 8 -35z m-4017 -121 c-15
-17 -15 -19 3 -39 18 -20 18 -21 0 -35 -17 -12 -22 -12 -37 2 -17 15 -21 14
-51 -11 -46 -39 -53 -53 -34 -74 16 -18 13 -51 -5 -51 -4 0 -20 11 -35 23 -41
36 -37 78 12 128 26 27 39 49 39 67 0 23 4 27 27 27 15 0 33 6 39 12 10 10 18
8 36 -9 21 -20 22 -23 6 -40z m3933 -27 c95 -58 42 -211 -72 -211 -46 0 -78
19 -99 60 -19 37 -19 54 2 97 32 67 108 91 169 54z m-3830 -107 c39 -19 74
-70 74 -109 0 -64 -70 -123 -131 -110 -70 16 -123 97 -99 155 29 70 90 95 156
64z m3560 -39 c40 26 60 -1 28 -36 -15 -17 -14 -21 17 -58 38 -45 45 -48 69
-26 14 13 19 13 36 0 18 -14 18 -15 -8 -41 -43 -43 -83 -38 -133 19 -31 35
-46 45 -61 41 -24 -6 -42 22 -24 40 6 6 4 16 -8 29 -16 18 -16 20 7 38 24 19
24 19 38 -1 14 -20 16 -20 39 -5z m-60 -156 c13 -12 24 -25 24 -28 0 -3 -30
-26 -65 -50 -36 -24 -65 -48 -65 -52 0 -4 9 -11 20 -14 23 -7 63 15 82 44 12
20 48 17 48 -4 0 -22 -38 -62 -76 -80 -46 -22 -92 -14 -127 23 -35 36 -42 71
-23 115 31 74 126 98 182 46z m-3353 -22 c28 -23 36 -37 32 -49 -9 -24 -14
-23 -63 13 -36 27 -40 33 -29 50 15 25 15 25 60 -14z m233 -68 c13 -12 24 -29
24 -37 0 -11 3 -12 14 -3 10 9 18 7 35 -6 l21 -18 -62 -95 c-73 -110 -100
-129 -159 -111 -42 13 -109 70 -109 94 0 30 29 26 64 -9 35 -35 63 -42 97 -24
25 14 24 30 -2 30 -27 0 -60 18 -81 44 -19 23 -24 87 -8 116 28 52 120 62 166
19z m2802 1 c10 -17 16 -19 33 -10 15 9 24 8 36 -1 13 -12 13 -15 -6 -30 -27
-22 -27 -28 9 -78 27 -36 33 -40 51 -30 11 6 27 8 35 5 25 -10 15 -36 -20 -53
-51 -24 -81 -11 -118 48 -23 38 -35 49 -49 46 -24 -6 -43 25 -27 41 8 8 9 18
0 36 -9 20 -7 25 11 34 30 15 31 15 45 -8z m-2627 -100 c10 -6 19 -17 19 -24
0 -7 12 -13 30 -13 17 0 33 -3 37 -7 12 -12 -13 -41 -33 -39 -45 6 -64 -8 -94
-67 -29 -57 -31 -59 -55 -48 -14 6 -25 15 -25 20 0 10 93 188 98 188 2 0 12
-5 23 -10z m2572 -50 c84 -93 -31 -231 -148 -178 -55 25 -73 113 -33 163 48
62 132 69 181 15z m-2350 -54 c72 -30 97 -104 55 -166 -40 -59 -116 -66 -176
-15 -56 47 -50 138 12 176 37 22 65 24 109 5z m2096 -8 c7 -18 5 -25 -10 -32
-37 -18 -36 -56 5 -157 5 -11 -2 -19 -20 -28 -15 -6 -28 -10 -29 -9 -12 16
-77 199 -72 204 3 4 20 7 36 8 17 1 38 9 48 19 23 23 32 22 42 -5z m-210 -22
c30 -16 51 -53 51 -91 0 -37 -45 -82 -101 -100 -41 -14 -49 -20 -44 -36 3 -10
8 -28 11 -39 4 -15 -1 -21 -21 -26 -14 -3 -28 -4 -31 -1 -6 5 -84 260 -81 263
1 1 31 11 67 22 78 25 112 27 149 8z m-1621 -66 c39 -18 42 -21 30 -40 -7 -11
-15 -19 -18 -17 -29 18 -83 36 -90 32 -20 -12 -8 -31 38 -60 112 -72 20 -155
-105 -94 -46 22 -51 30 -29 48 11 9 21 7 48 -9 38 -23 78 -26 78 -6 0 7 -22
27 -50 44 -40 25 -50 37 -50 58 0 63 65 82 148 44z m218 -55 c31 -13 34 -17
24 -35 -13 -24 -10 -24 -48 -4 -36 17 -67 15 -67 -4 0 -7 23 -25 50 -40 42
-23 51 -32 53 -59 6 -60 -71 -82 -155 -43 -45 20 -51 28 -32 47 8 8 23 6 56
-9 43 -19 73 -19 73 1 0 5 -24 22 -52 38 -42 22 -54 34 -56 56 -7 62 70 87
154 52z m1017 -37 c22 -11 52 -77 40 -88 -4 -5 -39 -13 -77 -19 -78 -11 -84
-15 -66 -36 16 -19 59 -19 86 -1 16 12 22 12 38 0 25 -18 8 -40 -45 -56 -107
-31 -193 66 -144 162 9 17 17 30 18 30 1 0 20 7 42 14 39 14 72 12 108 -6z
m-766 -20 c15 -16 27 -41 30 -68 l6 -43 -59 7 c-32 4 -71 9 -86 12 -31 6 -35
-3 -14 -31 10 -14 26 -20 57 -20 72 0 93 -26 37 -44 -43 -14 -104 1 -135 32
-50 49 -32 151 30 177 38 17 107 5 134 -22z m145 1 c3 -9 13 -9 40 0 29 10 43
9 71 -2 44 -19 55 -51 49 -145 -4 -72 -5 -73 -31 -70 -25 3 -26 5 -29 78 -2
56 -7 78 -19 88 -24 17 -40 15 -63 -8 -16 -16 -20 -33 -20 -85 l0 -65 -30 0
-30 0 0 64 c0 35 3 84 6 110 6 39 10 46 30 46 12 0 24 -5 26 -11z m376 3 c7
-5 10 -16 6 -25 -5 -13 -14 -16 -43 -11 -24 4 -43 0 -56 -9 -26 -20 -16 -28
47 -38 56 -9 78 -27 78 -65 0 -38 -45 -64 -109 -64 -65 0 -84 9 -75 34 5 14
14 16 45 11 45 -8 79 1 79 20 0 8 -17 16 -42 20 -68 10 -79 15 -88 41 -12 30
4 68 34 82 25 13 106 15 124 4z"/>
<path d="M4135 6623 c-31 -65 -57 -122 -58 -128 -2 -9 171 -41 179 -33 4 5
-52 268 -60 275 -2 3 -30 -49 -61 -114z"/>
<path d="M2865 6803 c-27 -8 -53 -18 -57 -21 -6 -6 101 -355 116 -381 9 -14
114 24 144 52 38 35 55 78 55 137 0 93 -51 176 -128 211 -48 22 -64 22 -130 2z"/>
<path d="M1690 5814 c0 -12 123 -234 129 -234 15 0 132 128 123 134 -12 7
-242 106 -248 106 -2 0 -4 -3 -4 -6z"/>
<path d="M3721 4239 c-171 -36 -477 -159 -601 -241 -254 -169 -375 -479 -270
-692 36 -72 111 -151 178 -185 98 -50 266 -65 415 -36 59 11 84 12 99 4 11 -6
67 -55 123 -108 167 -157 263 -199 420 -187 235 18 366 199 382 527 4 79 1
156 -6 209 -29 198 -158 495 -258 598 -120 122 -268 156 -482 111z"/>
<path d="M1235 4887 c-8 -20 -15 -41 -15 -47 0 -11 51 -12 88 -2 22 7 22 8
-17 46 l-41 40 -15 -37z"/>
<path d="M6550 4597 c0 -31 27 -67 45 -61 20 8 19 48 -1 68 -23 23 -44 20 -44
-7z"/>
<path d="M1003 4184 c-15 -24 -15 -29 -2 -53 29 -52 119 -35 119 23 0 56 -85
78 -117 30z"/>
<path d="M1003 3553 c-30 -11 -6 -83 27 -83 23 0 28 37 10 71 -11 19 -16 21
-37 12z"/>
<path d="M6525 3456 l-40 -12 50 -33 50 -32 7 23 c19 69 8 77 -67 54z"/>
<path d="M1113 3043 c-19 -7 -16 -48 5 -66 38 -34 61 -14 37 32 -17 34 -25 40
-42 34z"/>
<path d="M6380 2850 c-11 -11 -20 -29 -20 -40 0 -29 36 -60 70 -60 65 0 76 87
14 110 -35 14 -41 13 -64 -10z"/>
<path d="M1227 2792 c-55 -61 30 -134 88 -76 18 18 20 65 3 82 -18 18 -73 14
-91 -6z"/>
<path d="M6252 2588 c-29 -29 -7 -89 39 -103 52 -17 93 61 51 98 -22 20 -73
22 -90 5z"/>
<path d="M6106 2204 c-21 -31 -17 -59 9 -59 25 0 47 42 34 67 -13 24 -24 23
-43 -8z"/>
<path d="M1617 2093 c-25 -24 22 -80 57 -67 22 9 20 21 -9 49 -25 26 -37 30
-48 18z"/>
<path d="M5762 1924 c-32 -22 -26 -70 11 -98 26 -19 30 -19 55 -5 39 21 42 70
6 98 -32 25 -42 26 -72 5z"/>
<path d="M1950 1800 c-39 -39 -14 -100 42 -100 33 0 58 29 58 68 0 51 -61 71
-100 32z"/>
<path d="M5424 1643 c-19 -13 -33 -48 -25 -62 6 -10 18 -6 49 16 23 15 40 33
38 38 -3 12 -47 18 -62 8z"/>
<path d="M2329 1547 c-32 -16 -38 -66 -10 -91 41 -37 108 2 94 55 -8 31 -54
50 -84 36z"/>
<path d="M5034 1395 c-29 -29 -26 -58 8 -87 33 -29 65 -22 87 19 19 37 -18 93
-60 93 -6 0 -21 -11 -35 -25z"/>
<path d="M2731 1314 c-26 -33 -27 -58 -1 -84 26 -26 54 -25 80 2 27 29 26 73
-2 92 -32 23 -54 20 -77 -10z"/>
<path d="M4595 1303 c-11 -3 -24 -9 -29 -13 -11 -11 12 -100 26 -100 5 0 25 7
45 15 57 24 67 51 33 85 -20 20 -35 22 -75 13z"/>
<path d="M4208 1149 c-10 -5 -18 -18 -18 -28 0 -18 21 -19 89 -5 22 5 23 6 6
24 -20 22 -50 25 -77 9z"/>
<path d="M3443 1149 c-52 -19 -9 -48 71 -49 17 0 17 2 4 22 -18 27 -47 38 -75
27z"/>
</g>
</svg>
