<svg xmlns="http://www.w3.org/2000/svg" width="343" height="101"><g class="layer"><path d="M37.8 77.2h-.2.2m31-1.1a34 34 0 0 0-1.4-21.4 80.5 80.5 0 0 0-5.2-10.8A14.9 14.9 0 0 0 53 38c-3.8-.7-7.8 0-11.5 1-2.5.7-4.9 1.7-7.3 2.6-2.2.7-4.4 1.6-6.5 2.7a31 31 0 0 0-6.9 4.4c-2.2 1.9-4 4.2-5.3 6.7-1.1 2-2 4.2-2.4 6.5-.4 2.5-.1 5 .9 7.4.8 1.9 2 3.6 3.5 5 1.2 1.1 2.6 2 4 2.5a23.1 23.1 0 0 0 10.8 1c1.6-.1 3-.6 4.6-.7h.7l.2.1.4.2.1.1h.1l.2.2.7.5 1.4 1.4 4 3.7a25 25 0 0 0 4.1 2.9A15.1 15.1 0 0 0 60 87c1.6-.5 3-1.4 4.3-2.5 2.4-2.1 3.8-5.3 4.6-8.4M38.2 35a12.3 12.3 0 0 0-1.6-9.6 5.1 5.1 0 0 0-5-2.6h-.3c-1 .1-1.7.6-2.3 1.2l-1 1.6a9.4 9.4 0 0 0-1 5.5c.3 1.5 1 2.8 1.8 4 1 1.2 2.1 2.3 3.7 2.7 1.6.5 4 .5 5-1l.7-1.7m16.9-9.6a11 11 0 0 0-1-4.7 8 8 0 0 0-1.4-1.9 6.6 6.6 0 0 0-3.4-1.8 9 9 0 0 0-1.4-.1h-.8a5 5 0 0 0-1.4.5c-.4.2-.8.4-1 .7-.5.5-1 1-1.3 1.5a11.6 11.6 0 0 0-2 6.2 9 9 0 0 0 1.3 4.5l1.4 2a6.5 6.5 0 0 0 6.3 1.8c.8-.3 1.5-.7 2-1.3.8-1 1.4-2 1.8-3.3.6-1.3.9-2.7 1-4.2m20.5 6.2-.1-2.3c-.2-.9-.4-1.7-1-2.4-.2-.4-.6-.8-1-1-.6-.5-1.3-.8-2-1-1.8-.4-3.7-.4-5.5.2a8.1 8.1 0 0 0-4.3 3c-.8 1-1.4 2.2-1.8 3.4l-.6 2.2a9.8 9.8 0 0 0-.1 4c.1.7.4 1.3.8 1.9a5 5 0 0 0 3.2 1.4c1.4.2 2.8.1 4.1-.3a12.8 12.8 0 0 0 5.9-3.7 9.7 9.7 0 0 0 2.4-5.5m7.6 13.7-.3-1.6a3.2 3.2 0 0 0-.7-1 4.8 4.8 0 0 0-2.7-1.2h-2.8A6.8 6.8 0 0 0 73 43l-1.7 2-1.5 3c-.4 1-.5 2-.3 3 .2.6.7 1 1.2 1.3l1.4.5 1.1.1a10.2 10.2 0 0 0 5-1c1-.5 1.9-1.1 2.7-1.9a8 8 0 0 0 2-2.7c.3-.7.4-1.4.4-2.2m-11.8-29 .1.1z"/><path d="M94.3 61.2a51.2 51.2 0 0 0-4-29.1A46 46 0 0 0 72 12.4l1.7.4c.5 0 1.1.1 1.5-.3.3-.4.2-1 0-1.5-.2-.7-.7-1.3-1.2-1.9a5 5 0 0 0-2-1 69.9 69.9 0 0 0-15.7-1.8h-.6a71.7 71.7 0 0 0-30.1 0 1 1 0 0 0-.5.4l-.1.7c.1.7.4 1.3.9 1.8a4 4 0 0 0 1.9 1.5c.5.3 1 .4 1.7.2a46.2 46.2 0 0 1 6.6-1A78.8 78.8 0 0 0 23.9 15 40.7 40.7 0 0 0 2 44.2a45.7 45.7 0 0 0 3.3 27A39 39 0 0 0 19 86.4c4.4 3 9.2 5 14 7a53.2 53.2 0 0 0 18 4.3 35 35 0 0 0 14-2.3 47.3 47.3 0 0 0 21.5-16c4-5.4 6.6-11.6 7.8-18.2M87 65.8a41 41 0 0 1-15.2 19.3 45.8 45.8 0 0 1-16 7.2c-3.4.6-6.9.7-10.3.4h-.2l-.5-.1-1.2-.2a43 43 0 0 1-6.3-1.6l-1-.3-.4-.2.5.2-.5-.2-1.8-.6-3.1-1.3a71 71 0 0 1-6.3-2.8l-1.7-.8-.3-.2-.8-.5c-1.2-.6-2.3-1.4-3.4-2.2l-.8-.5-.3-.3-1.6-1.4-.8-.7-.3-.4a26.2 26.2 0 0 1-2.2-2.5l-.3-.4-.2-.4-1.1-1.6-1.2-2.2v-.2c-.2-.1-.2-.3-.3-.5l-.6-1.3L8 67l-.3-1-.2-.6v-.1a51.6 51.6 0 0 1-1.2-12.4A39.4 39.4 0 0 1 23 22.7c3-2 6.2-3.8 9.5-5.2a116 116 0 0 1 8.2-3.2c5.6-2 11.5-3 17.4-3a82.8 82.8 0 0 1 5.7 1.5l.7.2.3.1 3.4 1.4 1.9 1c.3 0 .6.2 1 .4l.3.2-.2-.1.3.2c.2 0 .4.2.1 0l4 2.6.2.2.3.2a45.8 45.8 0 0 1 3 2.8c.2.1.8.8 0 0l.5.5a60.2 60.2 0 0 1 2.9 3.4v.1l.2.3.3.5 1 1.4.4.9.8 1.4.2.5a27 27 0 0 1 1.7 3.9 55.7 55.7 0 0 1 1.6 5.1v.5c.2.3.2.7.3 1 .6 3 1 6 1 9l-.1 2c-.3 4.6-1.3 9-3 13.3"/><path d="M82.7 26.3V26l-.2-.1.2.3zM107 58.6a5 5 0 0 1 1.1-3l2.6-3 2.1-2.1a10 10 0 0 0 1.7-2.5l2.5-7.7 2.5-7.7 2.8-8.6a1697.6 1697.6 0 0 1 5-15c.6-1.7 1.5-2.7 2.8-3.2a13.5 13.5 0 0 1 8.9 0 4.6 4.6 0 0 1 2.8 2.8l15.8 39.8.9 1.6 1.2 1.5 2.2 3.1c.6 1 1 2.3 1 3.5a3.4 3.4 0 0 1-1.6 3 8.3 8.3 0 0 1-4.5 1.1h-14.2a5 5 0 0 1-3.1-1 3.4 3.4 0 0 1-1.2-2.7c0-.8.2-1.6.5-2.3l1.1-2c.6-.8 1-1.7 1.4-2.6.3-1 .3-2.1-.2-3.5l-.1-.5h-16.2l-.3 1a8 8 0 0 0-.3 2 4.8 4.8 0 0 0 .8 2.8l.9 1 1 1.7c.4.6.6 1.3.6 2a4.1 4.1 0 0 1-4.1 4.1h-11c-1.7 0-3-.3-4-.9a3 3 0 0 1-1-1.1 3 3 0 0 1-.3-1.5m30.5-20.2-5.4-14.1-4.4 14.1h9.8zm32.6 14.6a3.4 3.4 0 0 0 1.4-2.6V17.2c0-.5-.1-1-.4-1.5-.2-.5-.5-.9-1-1.2a8.9 8.9 0 0 1-3.2-5.6 3.2 3.2 0 0 1 1.1-2.5c.8-.6 1.8-1 2.9-1h23.8c3.2 0 6.5.5 9.4 1.7a20.1 20.1 0 0 1 11.1 10.7 19.2 19.2 0 0 1 0 14.5c-.9 2.3-2.2 4.4-4 6.2-2 2-4.3 3.4-6.8 4.4-2.8 1.2-6 1.7-9.7 1.7h-8.3v5.8a3.3 3.3 0 0 0 1.3 2.7c1 .8 1.8 1.7 2.4 2.8.5.8.8 1.8.9 2.8a3.2 3.2 0 0 1-1.1 2.5c-.8.7-1.8 1-2.9 1H171c-1 0-2.1-.3-2.9-1l-.8-1.1-.3-1.4c0-1 .3-2 .9-2.8.6-1 1.4-2 2.3-2.8m16.3-17.6h4.5a8 8 0 0 0 5-1.5c1.4-1 2.4-2.4 3-4a13 13 0 0 0 0-10.1 9.5 9.5 0 0 0-3.1-3.8 8.5 8.5 0 0 0-5.2-1.6h-4.1v21zm26.8 23.1a5 5 0 0 1 1.1-3l2.6-3 2.1-2.1a10 10 0 0 0 1.7-2.5l2.5-7.7 2.5-7.7 2.8-8.6 2.8-8.3 2.2-6.8c.6-1.6 1.5-2.6 2.8-3.1a13.4 13.4 0 0 1 8.9 0 4.6 4.6 0 0 1 2.8 2.8l15.8 39.8.9 1.6 1.2 1.5 2.2 3.1c.6 1 1 2.3 1 3.5a3.4 3.4 0 0 1-1.6 3 8.3 8.3 0 0 1-4.5 1.1H249c-1 0-2.2-.3-3.1-1a3.4 3.4 0 0 1-1.2-2.7c0-.8.2-1.6.5-2.3l1.1-2c.6-.8 1-1.7 1.4-2.6.3-1 .3-2.1-.2-3.5l-.1-.5H231l-.3 1-.3 2a4.8 4.8 0 0 0 .8 2.8l.9 1c.4.6.8 1.1 1 1.7.4.6.6 1.3.6 2a4.1 4.1 0 0 1-4.1 4.1h-11c-1.7 0-3-.3-4-.9a3 3 0 0 1-1.4-2.7m30.6-20-5.4-14.2-4.4 14.1h9.8zm29.3 20.1c.1-1 .4-2 .9-2.7a11 11 0 0 1 2.4-2.9 3.4 3.4 0 0 0 1.3-2.6V17.2a3.4 3.4 0 0 0-1.3-2.7c-1-.7-1.8-1.7-2.4-2.8-.5-.8-.8-1.8-.8-2.8a3.2 3.2 0 0 1 1-2.5 5 5 0 0 1 2.9-1h14.6c2 0 3.5.6 4.6 1.6 1 1 2 2.2 2.4 3.5l8.6 21.7 8.3-21.8.8-1.7 1.4-1.5a8 8 0 0 1 2-1.3c.9-.3 1.8-.5 2.7-.4H336c1 0 2 .3 2.9 1a3.2 3.2 0 0 1 1 2.4c0 1-.3 2-.8 2.8-.6 1.1-1.4 2-2.3 2.8a3.3 3.3 0 0 0-1.3 2.6v33.4c0 .7.2 1.4.7 2l1.5 1.8 1.6 2c.5.7.7 1.6.7 2.4a3.2 3.2 0 0 1-1.1 2.5c-.8.7-1.8 1-2.9 1h-16c-1 0-2-.3-2.9-1a3.2 3.2 0 0 1-1-2.5c-.1-.9.1-1.7.6-2.5l1.6-1.8 1.5-1.7c.5-.6.7-1.4.7-2.2V22.6l-13.2 35c-.3.7-.8 1.4-1.5 1.9a4 4 0 0 1-6-1.8l-12.5-31.6v24.4a3.3 3.3 0 0 0 1.3 2.6c1 .8 1.7 1.8 2.3 2.9.6.8.9 1.7 1 2.7a3.2 3.2 0 0 1-1.2 2.5c-.8.7-1.8 1-2.8 1H277c-1 0-2-.3-2.9-1l-.8-1.1c-.2-.4-.3-.9-.3-1.4M116 80h-5.3l-1 2.3H107l5-11.2h2.6l5 11.2H117l-1-2.4zm-.9-2-1.8-4.3-1.8 4.3h3.6zm6.3 4.2a5 5 0 0 1-1.7-.7l.9-1.8c.4.3.9.5 1.4.6.5.2 1 .3 1.6.3 1 0 1.6-.3 1.6-.8l-.1-.4-.4-.2a6 6 0 0 0-1.3-.2 13 13 0 0 1-1.7-.4c-.5-.1-.9-.4-1.2-.7-.4-.4-.6-1-.5-1.5 0-.6.1-1 .4-1.5a3 3 0 0 1 1.4-1 8 8 0 0 1 4-.1c.5 0 1 .3 1.5.5l-.9 1.8c-.7-.4-1.6-.6-2.5-.6-.4 0-.8 0-1.2.2l-.2.2-.2.4c0 .1 0 .2.2.3 0 .1.1.2.3.2.4.2.9.3 1.3.3l1.8.4c.4.1.8.4 1.2.7.3.4.5 1 .5 1.5s-.2 1-.5 1.4a3 3 0 0 1-1.4 1 7.1 7.1 0 0 1-4.3.1m8.6 0c-.7-.1-1.2-.4-1.7-.7l.8-1.8 1.4.6c.5.2 1 .3 1.6.3 1 0 1.6-.3 1.6-.8a.5.5 0 0 0-.4-.5 3 3 0 0 0-1.3-.3 13 13 0 0 1-1.8-.4 3 3 0 0 1-1.2-.7 2 2 0 0 1-.5-1.5c0-.6.2-1 .5-1.5a3 3 0 0 1 1.4-1l2.1-.3a8 8 0 0 1 1.8.2c.6 0 1 .3 1.5.5l-.8 1.8a5 5 0 0 0-2.5-.6c-.4 0-.8 0-1.2.2l-.3.2-.1.4.1.3.3.2 1.4.3 1.7.4c.5.1.9.4 1.2.7.4.4.5 1 .5 1.5s-.1 1-.5 1.4a3 3 0 0 1-1.4 1 6.4 6.4 0 0 1-4.2.1m9.3-.3A4.3 4.3 0 0 1 137 78a4.2 4.2 0 0 1 2.3-3.9c.8-.4 1.6-.5 2.5-.5.8 0 1.6.1 2.4.5a4.2 4.2 0 0 1 2.3 4c0 .7-.2 1.5-.6 2.2-.4.7-1 1.2-1.7 1.6-.8.4-1.6.6-2.4.5-.9 0-1.7-.1-2.5-.5zm4-2.2a2.8 2.8 0 0 0 0-3.4l-.7-.5a2 2 0 0 0-.8-.2 2.1 2.1 0 0 0-1.6.7c-.4.5-.7 1-.7 1.7 0 .6.3 1.3.7 1.8l.7.4c.3.2.6.2.9.2.3 0 .5 0 .8-.2.3 0 .6-.2.8-.4zm6.6 2.2a4.4 4.4 0 0 1-1.8-6.2c.5-.6 1-1.2 1.8-1.6a6 6 0 0 1 4.8 0c.7.4 1.2 1 1.5 1.7l-2 1a2 2 0 0 0-.7-.9l-1.2-.3a2.2 2.2 0 0 0-1.6.7 2.7 2.7 0 0 0 0 3.5l.8.5.8.1 1.2-.3c.3-.2.6-.5.8-.9l2 1c-.4.8-.9 1.3-1.6 1.7a5.3 5.3 0 0 1-4.9 0zm7.9-9.9-.3-.4a1.3 1.3 0 0 1 0-1c0-.2.2-.4.3-.5.3-.3.7-.4 1.1-.4.4 0 .8.1 1.2.4l.3.4v1.1l-.3.5c-.4.2-.8.4-1.2.4-.4 0-.8-.2-1.1-.4m-.1 1.6h2.5v8.6h-2.5v-8.6zm11.3.8c.8.7 1.2 1.6 1.2 2.9v5h-2.4v-1.2c-.4.8-1.3 1.2-2.6 1.2-.6 0-1.2 0-1.7-.3-.5-.2-.9-.5-1.2-1-.2-.3-.4-.8-.3-1.3a2.3 2.3 0 0 1 .9-1.9c.6-.4 1.5-.7 2.8-.6h2l-.1-.7-.4-.6c-.5-.3-1-.5-1.5-.4-.5 0-1 0-1.4.2-.4.1-.8.3-1.1.6l-1-1.8 1.8-.8 2-.2c1.3 0 2.4.3 3 1m-2 5.9c.3-.2.5-.5.7-.9v-.9h-1.8c-1 0-1.5.4-1.5 1a.9.9 0 0 0 .4.8c.3.2.6.3 1 .3l1.2-.3zm7.2 1.4a4.4 4.4 0 0 1-1.7-6.2c.4-.6 1-1.2 1.7-1.6.8-.3 1.7-.5 2.5-.5s1.7.1 2.4.5 1.2 1 1.5 1.7l-2 1a2.2 2.2 0 0 0-2-1.2c-.2 0-.5 0-.8.2-.3 0-.5.3-.7.5a2.7 2.7 0 0 0 0 3.5 2.2 2.2 0 0 0 1.6.6 2.1 2.1 0 0 0 2-1.2l1.9 1c-.3.8-.8 1.3-1.5 1.7a5.4 5.4 0 0 1-4.9 0zm.8 4c-.3 0-.5 0-.7-.2l.4-1 1 .2c.6 0 .9-.2.9-.5 0-.4-.3-.5-.8-.5h-.6l.5-1.7h1.3l-.2 1c.4 0 .7 0 1 .3.3.3.4.6.4 1 0 .2 0 .4-.2.6l-.5.5c-.5.3-1 .5-1.7.4h-.8m13.6-11.5c.7.7 1 1.6 1 2.9v5h-2.3v-1.2c-.4.8-1.3 1.2-2.6 1.2-.6 0-1.2 0-1.7-.3-.5-.2-.9-.5-1.1-1-.3-.3-.4-.8-.4-1.3 0-.3 0-.7.2-1l.7-.9a5 5 0 0 1 2.8-.6h2l-.1-.7-.4-.6c-.5-.3-1-.5-1.5-.4-.5 0-1 0-1.4.2-.4.1-.8.3-1.1.6l-1-1.8 1.8-.8 2-.2c1.4 0 2.4.3 3 1m-2.3-2.1-.7-.5a4 4 0 0 0-.4-.3.6.6 0 0 0-.7 0l-.2.2a1 1 0 0 0-.2.6h-1.3c0-.6.2-1.2.5-1.6l.6-.5.8-.2c.2 0 .5 0 .7.2a5.8 5.8 0 0 1 1.2.8h.6l.3-.2.2-.6h1.3c0 .6-.2 1.2-.6 1.6a1 1 0 0 1-.6.5l-.7.2c-.3 0-.5 0-.8-.2m.3 8c.3-.2.5-.5.7-.9v-.9h-1.8c-1 0-1.5.4-1.5 1l.1.5.3.3c.3.2.7.3 1 .3l1.2-.3zm7.2 1.4c-.7-.4-1.3-1-1.7-1.6a4.7 4.7 0 0 1 0-4.6c.4-.7 1-1.2 1.7-1.6.8-.4 1.6-.5 2.5-.5a5 5 0 0 1 2.4.5 4.2 4.2 0 0 1 2.3 4c0 .7-.2 1.5-.6 2.2-.4.7-1 1.2-1.7 1.6-.8.4-1.6.6-2.4.5-.9 0-1.7-.1-2.5-.5zm4-2.2a2.8 2.8 0 0 0 0-3.4 2 2 0 0 0-1.5-.7 2.1 2.1 0 0 0-1.6.6c-.4.6-.7 1.2-.7 1.8 0 .6.3 1.3.7 1.8a2.1 2.1 0 0 0 1.6.6 2 2 0 0 0 1.5-.7zm19.8 2.6v-6.7l-3.3 5.5H213l-3.3-5.4v6.6h-2.4V71.1h2.2l4.2 7 4.1-7h2.2v11.2h-2.5zm11.5-7.8c.8.7 1.1 1.6 1.1 2.9v5h-2.3v-1.2c-.5.8-1.4 1.2-2.6 1.2a4 4 0 0 1-1.8-.3c-.4-.2-.8-.5-1.1-1-.3-.3-.4-.8-.4-1.3 0-.3 0-.7.2-1l.7-.9c.6-.4 1.6-.7 2.8-.6h2v-.7l-.5-.6a2 2 0 0 0-1.5-.4 3 3 0 0 0-1.3.2l-1.2.6-.9-1.8 1.7-.8 2-.2c1.4 0 2.4.3 3.2 1m-2.2 5.9c.4-.2.6-.5.7-.9v-.9H226c-1 0-1.5.4-1.5 1v.5l.3.3c.3.2.7.3 1 .3.5 0 .9-.1 1.2-.3zm11.1 1.4-1 .4-1 .2c-1 0-1.8-.3-2.4-.8l-.7-1a3 3 0 0 1-.2-1.3v-3.6h-1.3V74h1.3v-2.1h2.5V74h2.2v2h-2.2v3.4c0 .3 0 .7.3.9l.4.2h.4c.4 0 .7 0 1-.2l.7 1.7zm2.8 0a4.2 4.2 0 0 1-2.3-3.9 4.1 4.1 0 0 1 2.3-3.9 5.5 5.5 0 0 1 4.9 0 4.2 4.2 0 0 1 2.3 4c0 .7-.2 1.5-.6 2.2-.4.7-1 1.2-1.7 1.6a5.6 5.6 0 0 1-5 0zm4-2.2a2.7 2.7 0 0 0 0-3.4 2 2 0 0 0-1.6-.7 2.1 2.1 0 0 0-1.6.7 2.7 2.7 0 0 0 0 3.5l.8.4c.2.2.5.2.8.2a2 2 0 0 0 1.6-.6zm9.2-2.9h-4.5v2h4.5v-2zm11.1-3.1v7.2c0 1.6-.4 2.7-1.2 3.5a5 5 0 0 1-3.6 1.2c-.9 0-1.7-.1-2.4-.3a5 5 0 0 1-1.9-1l1-1.7 1.4.7c.5.2 1.1.2 1.7.2.7.1 1.4-.1 1.9-.5l.5-.9.1-.9v-.4c-.3.4-.8.7-1.2.9l-1.5.2c-.8 0-1.5-.2-2.2-.5a4 4 0 0 1-2.1-3.7c0-.7.2-1.5.5-2.2a4 4 0 0 1 1.6-1.4c.7-.4 1.4-.5 2.2-.5.5 0 1 0 1.6.2.5.3.9.6 1.2 1v-1.1h2.4zm-3.1 5.6c.4-.4.6-1 .6-1.6 0-.5-.2-1-.6-1.5-.5-.4-1-.6-1.6-.6-.6 0-1.2.2-1.7.6a2.1 2.1 0 0 0 0 3c.5.5 1 .7 1.7.7.6 0 1.2-.2 1.6-.6zm9-5.4 1.8-.3v2.3h-1.5l-.8.6-.5.8v5h-2.6v-8.6h2.4v1.1a4 4 0 0 1 1.2-1m4.9 8.1a4.2 4.2 0 0 1-2.3-3.9 4.1 4.1 0 0 1 2.3-3.9 5 5 0 0 1 2.4-.5c.9 0 1.7.1 2.5.5a4.2 4.2 0 0 1 2.3 4c0 .7-.2 1.5-.6 2.2-.5.7-1 1.2-1.7 1.6-.8.4-1.6.6-2.5.5a5 5 0 0 1-2.4-.5zm4-2.2a2.8 2.8 0 0 0 0-3.4 2.1 2.1 0 0 0-1.6-.7 2 2 0 0 0-1.6.6 2.7 2.7 0 0 0 0 3.5 2 2 0 0 0 1.6.7 2 2 0 0 0 1.6-.7zm5.6 2.5c-.5-.1-1-.4-1.6-.7l.9-1.8c.4.3.9.5 1.4.6.5.2 1 .3 1.6.3 1 0 1.5-.3 1.5-.8a.5.5 0 0 0-.4-.5 6 6 0 0 0-1.3-.3l-1.8-.4c-.4-.1-.8-.4-1.2-.7-.3-.4-.5-1-.5-1.5 0-.6.2-1 .5-1.5a3 3 0 0 1 1.4-1l2.1-.3a8 8 0 0 1 1.9.2c.5 0 1 .3 1.5.5l-.9 1.8a5 5 0 0 0-2.5-.6c-.4 0-.8 0-1.2.2l-.3.2v.7l.3.2 1.4.3 1.8.4c.4.1.8.4 1.1.7.4.4.6 1 .5 1.5 0 .5-.1 1-.5 1.4a3 3 0 0 1-1.4 1 6.4 6.4 0 0 1-4.2.1m8.4 0c-.5-.1-1-.4-1.6-.7l.9-1.8c.4.3.9.5 1.4.6.5.2 1 .3 1.6.3 1 0 1.6-.3 1.6-.8l-.1-.4-.3-.2a6 6 0 0 0-1.4-.2 13 13 0 0 1-1.7-.4c-.5-.1-.9-.4-1.2-.7-.4-.4-.6-1-.5-1.5 0-.6.1-1 .5-1.5a3 3 0 0 1 1.3-1 8 8 0 0 1 4-.1c.5 0 1 .3 1.5.5l-.8 1.8a5 5 0 0 0-2.5-.6c-.4 0-.9 0-1.2.2l-.3.2-.2.4c0 .1 0 .2.2.3 0 .1.1.2.3.2.4.2.9.3 1.4.3l1.7.4c.4.1.8.4 1.2.7.3.4.5 1 .5 1.5s-.2 1-.5 1.4a3 3 0 0 1-1.4 1c-.7.3-1.5.4-2.2.4l-2.1-.3m16.1-3.5h-6.5c.1.5.4 1 .8 1.3.5.3 1.1.5 1.7.4.4 0 .8 0 1.2-.2.3-.1.7-.3 1-.6l1.3 1.5c-.8.9-2 1.4-3.6 1.4-.9 0-1.8-.2-2.6-.6-.7-.4-1.3-1-1.7-1.6a4.6 4.6 0 0 1 0-4.6c.4-.7 1-1.2 1.7-1.6a6 6 0 0 1 2.3-.5 5 5 0 0 1 2.3.5 4 4 0 0 1 1.6 1.6 4.8 4.8 0 0 1 .6 3m-6-2.8a2 2 0 0 0-.6 1.4h4.2c0-.5-.3-1-.7-1.3a2 2 0 0 0-1.4-.5c-.5 0-1 .1-1.4.4zm15.5-1.4c.7.7 1 1.6 1 2.9v5h-2.5v-4.6c0-.6-.1-1.1-.5-1.6l-.6-.4h-.7a2 2 0 0 0-.8 0 2 2 0 0 0-.7.5c-.4.5-.6 1.1-.5 1.8v4.2H312v-8.6h2.4v1a2 2 0 0 1 1.2-.8c.5-.2 1-.3 1.6-.3.5 0 1 0 1.4.2.4.1.9.4 1.2.7m4.1 7.7a5 5 0 0 1-1.7-.7l.9-1.8c.4.3.9.5 1.4.6.5.2 1 .3 1.6.3 1 0 1.6-.3 1.6-.8a.5.5 0 0 0-.4-.5 6 6 0 0 0-1.4-.3 13 13 0 0 1-1.7-.4c-.5-.1-.9-.4-1.2-.7-.4-.4-.6-1-.5-1.5 0-.6.1-1 .4-1.5a3 3 0 0 1 1.4-1 8 8 0 0 1 4-.1c.5 0 1 .3 1.5.5l-.9 1.8a5 5 0 0 0-2.4-.6c-.5 0-.9 0-1.3.2l-.2.2-.2.4c0 .1 0 .2.2.3 0 .1.1.2.3.2.4.2.9.3 1.3.3l1.8.4c.4.1.8.4 1.2.7.3.4.5 1 .5 1.5s-.2 1-.5 1.4a3 3 0 0 1-1.4 1 7.1 7.1 0 0 1-4.3.1m16.1-3.5h-6.5c0 .5.4 1 .8 1.3.5.3 1 .5 1.7.4.4 0 .8 0 1.2-.2.3-.1.7-.3 1-.6l1.3 1.5c-.8.9-2 1.4-3.6 1.4-.9 0-1.8-.2-2.6-.6-.7-.4-1.3-1-1.7-1.6a4.6 4.6 0 0 1 0-4.6c.4-.7 1-1.2 1.6-1.6.8-.3 1.6-.5 2.4-.5a5 5 0 0 1 2.3.5 4 4 0 0 1 1.6 1.6c.4.7.6 1.5.6 2.3v.7m-6-2.8a2 2 0 0 0-.6 1.4h4.2c0-.5-.3-1-.7-1.3a2 2 0 0 0-1.4-.5c-.5 0-1 .1-1.4.4zM116 87.4a4 4 0 0 1 1.7 1.4 4.2 4.2 0 0 1 0 4.3 4 4 0 0 1-1.7 1.4c-.8.4-1.7.5-2.6.5H111v3.1h-2.6V87h4.9c.9 0 1.8.1 2.6.5zm-1 5 .5-.7c.1-.2.2-.5.1-.7l-.1-.8a2 2 0 0 0-.5-.7c-.5-.4-1.1-.5-1.8-.5h-2v4h2c.7 0 1.3-.1 1.8-.5zm8.6-2.7c.5-.2 1.1-.3 1.7-.3v2.3h-1.5l-.7.5a2.4 2.4 0 0 0-.7 1.8v4.1H120v-8.6h2.4v1.1c.3-.4.8-.7 1.2-1m4.8 8.1c-.7-.4-1.3-1-1.7-1.6a4.6 4.6 0 0 1 0-4.6c.4-.7 1-1.2 1.7-1.6a5.5 5.5 0 0 1 4.9 0 4.3 4.3 0 0 1 2.3 3.9 4.2 4.2 0 0 1-2.3 3.9 5.5 5.5 0 0 1-5 0zm4-2.1a2.8 2.8 0 0 0 0-3.5l-.7-.5-.9-.2a2.2 2.2 0 0 0-1.6.6 2.8 2.8 0 0 0 0 3.6 2.2 2.2 0 0 0 3.2 0zm10.4 2.1c-.2.2-.5.3-.9.4l-1.1.2a4 4 0 0 1-2.4-.8l-.7-1a3 3 0 0 1-.1-1.3v-3.6h-1.4v-2h1.4v-2h2.5v2h2.1v2h-2.1v3.5c0 .3 0 .6.3.9l.3.2h.5c.3 0 .7 0 1-.3l.6 1.8zm9.6-3.2h-6.5c0 .5.4 1 .8 1.3.5.3 1 .5 1.7.4.3 0 .8 0 1.1-.2a2 2 0 0 0 1-.6l1.3 1.4c-.8 1-2 1.4-3.5 1.4-1 0-1.8-.1-2.6-.5-.7-.4-1.3-1-1.7-1.6a4.7 4.7 0 0 1 0-4.6c.3-.7 1-1.2 1.6-1.6a5.1 5.1 0 0 1 4.7 0 4 4 0 0 1 1.6 1.6c.4.7.6 1.5.6 2.3v.7m-6-2.8a2 2 0 0 0-.6 1.4h4.2c0-.6-.3-1-.7-1.4-.4-.3-1-.5-1.4-.5a3 3 0 0 0-1.5.5m13.2 6-1 .4-1 .2c-1 0-1.8-.3-2.4-.8a3 3 0 0 1-.7-1l-.2-1.3v-3.6h-1.3v-2h1.3v-2h2.5v2h2.2v2h-2.2v3.5l.3.9.4.2h.4c.4 0 .7 0 1-.3l.7 1.8zm2.8 0c-.7-.4-1.3-1-1.7-1.6a4.7 4.7 0 0 1 0-4.6c.4-.7 1-1.2 1.7-1.6a5.5 5.5 0 0 1 4.9 0 4.2 4.2 0 0 1 2.3 3.9 4.2 4.2 0 0 1-2.3 3.9 5.5 5.5 0 0 1-4.9 0zm4-2.1a2.8 2.8 0 0 0 0-3.5 2 2 0 0 0-1.5-.7 2.2 2.2 0 0 0-1.6.7 2.7 2.7 0 0 0 0 3.5 2 2 0 0 0 1.6.6 2.1 2.1 0 0 0 1.5-.6zm8.5-5.9c.5-.2 1.1-.3 1.7-.3v2.3h-1.5l-.7.5-.5.9c-.1.3-.2.6-.1 1v4h-2.5v-8.6h2.4v1.1a4 4 0 0 1 1.2-1m9.8.7c.7.7 1 1.6 1 2.9v5h-2.3V97c-.5.8-1.4 1.2-2.6 1.2a4 4 0 0 1-1.8-.3 2 2 0 0 1-1-1c-.3-.3-.5-.8-.5-1.3 0-.3 0-.7.3-1 .1-.4.3-.6.6-.9.6-.4 1.6-.7 2.8-.7h2v-.6l-.5-.6a2 2 0 0 0-1.5-.4 3 3 0 0 0-1.3.2c-.4.1-.8.3-1.1.6l-1-1.8 1.7-.8 2-.2c1.4 0 2.4.3 3.2 1m-2.2 5.9c.4-.2.6-.5.8-.9v-.9h-1.8c-1 0-1.5.4-1.5 1v.5c.2 0 .2.2.4.3a2 2 0 0 0 2.1 0zm18.9-10.1v12H199v-1l-1.3.8c-.4.2-1 .3-1.4.2a4.1 4.1 0 0 1-3.8-2.1 5.1 5.1 0 0 1 0-4.6 4 4 0 0 1 1.6-1.6c.6-.4 1.4-.6 2.2-.5.4 0 1 0 1.4.2l1.2.8v-4.2h2.5zm-3.1 9.3c.4-.5.6-1 .6-1.7 0-.6-.2-1.3-.6-1.7a2 2 0 0 0-1.6-.7 2.1 2.1 0 0 0-1.6.7 2.7 2.7 0 0 0 0 3.4c.2.3.5.4.7.5l.9.2a2 2 0 0 0 1.6-.7zm7 2.2a4.3 4.3 0 0 1-2.3-3.9c0-.8.2-1.6.6-2.3.5-.7 1-1.2 1.7-1.6.8-.4 1.6-.5 2.5-.5a5 5 0 0 1 2.4.5 4.2 4.2 0 0 1 2.3 3.9 4.2 4.2 0 0 1-2.3 3.9 5 5 0 0 1-2.4.5c-.9 0-1.7-.1-2.5-.5zm4-2.1a2.8 2.8 0 0 0 0-3.5 2 2 0 0 0-1.5-.7 2.2 2.2 0 0 0-1.6.6 2.8 2.8 0 0 0 0 3.6 2.2 2.2 0 0 0 3.2 0zm5.7 2.4c-.5-.1-1.1-.4-1.6-.7l.8-1.8 1.4.6c.6.2 1 .2 1.6.2 1.1 0 1.6-.2 1.6-.7l-.1-.4-.3-.2a6 6 0 0 0-1.3-.2l-1.8-.4a3 3 0 0 1-1.2-.7 3 3 0 0 1-.5-1.6c0-.5.2-1 .5-1.4a3 3 0 0 1 1.4-1 8.6 8.6 0 0 1 4-.2c.5.2 1 .3 1.4.6l-.8 1.8c-.8-.4-1.6-.7-2.5-.7l-1.2.3-.3.2-.1.3.1.4.3.2 1.4.3 1.7.4c.5.1.9.4 1.2.7.4.4.5 1 .5 1.5s-.2 1-.5 1.4a3 3 0 0 1-1.4 1c-.7.2-1.4.4-2.2.3-.7 0-1.4 0-2.1-.2m19.9-2.3h-5.2l-1 2.4H226l5-11.2h2.6l5 11.2H236l-1-2.4zm-.8-2-1.8-4.3-1.8 4.3h3.6zm13.4-3.4c.6.7 1 1.6 1 2.9v5H246v-4.6c0-.6 0-1.1-.4-1.6l-.6-.4h-.7a2 2 0 0 0-1.5.5c-.4.5-.6 1.1-.6 1.7v4.3h-2.5v-8.6h2.4v1c.4-.4.8-.7 1.2-.8.6-.3 1.1-.4 1.7-.3a3.5 3.5 0 0 1 2.6 1m3.4-2.5-.4-.5a1.3 1.3 0 0 1 .3-1.5c.3-.3.8-.4 1.2-.4.4 0 .8.1 1.1.4l.3.4.1.5a1.4 1.4 0 0 1-.4 1 1.6 1.6 0 0 1-1.1.5c-.4 0-.9-.2-1.2-.4m0 1.6h2.4V98h-2.5v-8.6zm18.4.8a4 4 0 0 1 1 2.9v5h-2.5v-4.6c0-.6-.1-1.1-.5-1.6a1.5 1.5 0 0 0-1.2-.5c-.2 0-.5 0-.7.2-.3 0-.5.2-.7.4-.4.5-.5 1-.5 1.7V98h-2.5v-4.5c0-1.4-.5-2-1.6-2a1.8 1.8 0 0 0-1.4.5 2 2 0 0 0-.5 1.7V98h-2.5v-8.6h2.4v1c.3-.4.7-.7 1.1-.9.5-.2 1-.3 1.6-.3.6 0 1.1.2 1.6.4s1 .6 1.2 1c.4-.4.8-.8 1.4-1 .5-.2 1.1-.4 1.7-.4.5 0 1 .1 1.4.3.5.1.9.4 1.2.7m9.7.1c.8.7 1.1 1.6 1.2 2.9v5h-2.4V97c-.5.8-1.3 1.2-2.6 1.2a4 4 0 0 1-1.8-.3 2.4 2.4 0 0 1-1.5-2.3 2.3 2.3 0 0 1 1-1.9c.6-.4 1.5-.7 2.7-.7h2v-.6a1 1 0 0 0-.5-.6 2 2 0 0 0-1.5-.4 3 3 0 0 0-1.3.2c-.4.1-.8.3-1.1.6l-1-1.8 1.8-.8 2-.2c1.3 0 2.4.3 3 1m-2 5.9c.3-.2.5-.5.6-.9v-.9H276c-1 0-1.5.4-1.5 1v.5l.4.3a2 2 0 0 0 2.1 0zm5.6-8.4-.4-.5v-1.1l.4-.4c.3-.3.7-.4 1-.4.5 0 1 .1 1.2.4.2 0 .3.2.3.4l.1.5v.6l-.4.5a1.6 1.6 0 0 1-1.1.4c-.4 0-.8-.2-1.1-.4m-.2 1.6h2.6V98h-2.6v-8.6zM288 98c-.5-.1-1-.4-1.6-.7l.9-1.8c.4.3.9.5 1.4.6.5.2 1 .2 1.6.2 1 0 1.6-.2 1.6-.7l-.1-.4-.3-.2a6 6 0 0 0-1.4-.2l-1.7-.4c-.5-.1-.9-.4-1.2-.7-.4-.5-.6-1-.5-1.6 0-.5.1-1 .5-1.4a3 3 0 0 1 1.3-1c.7-.2 1.4-.4 2.2-.3.6 0 1.2 0 1.8.2.5 0 1 .2 1.5.5l-.8 1.8c-.8-.4-1.7-.7-2.5-.7-.5 0-.9.1-1.3.3l-.2.2-.1.3v.4l.4.2c.4.2.9.3 1.4.3l1.7.4c.4.1.9.4 1.2.7.3.4.5 1 .5 1.5s-.2 1-.5 1.4c-.4.5-.9.8-1.4 1a9 9 0 0 1-4.3 0"/></g></svg>