<svg xmlns="http://www.w3.org/2000/svg" width="343" height="101"><g class="layer"><path d="m37.79 77.24-.08-.03-.1-.03c.07.03.14.05.2.07"/><path d="M68.8 76.11c.78-3.06 1.12-6.21 1.03-9.36-.09-2.53-.43-5.06-1.03-7.52-.38-1.55-.85-3.07-1.42-4.55-.9-2.36-1.84-4.7-2.96-6.97-.65-1.34-1.4-2.63-2.26-3.85-1.04-1.45-2.33-2.7-3.81-3.69-1.62-1.07-3.44-1.8-5.35-2.16-3.81-.72-7.78 0-11.48 1.02-2.49.69-4.89 1.66-7.32 2.53-2.22.78-4.41 1.68-6.54 2.69-2.47 1.18-4.78 2.68-6.86 4.47-2.17 1.87-3.96 4.14-5.28 6.67-1.13 2.04-1.93 4.25-2.37 6.54-.43 2.47-.15 5.01.81 7.32.83 1.93 2.05 3.67 3.57 5.11 1.17 1.08 2.54 1.93 4.03 2.48 1.58.56 3.23.94 4.91 1.12 1.95.23 3.93.21 5.88-.06 1.53-.2 3.02-.66 4.55-.84h.37l.33.1c.06.02.11.04.17.06l.1.04-.07-.03.38.2.16.08.09.06h.04l.17.13c.23.16.45.35.66.54.49.42.95.92 1.42 1.39 1.27 1.26 2.57 2.47 3.93 3.64 1.27 1.14 2.68 2.12 4.2 2.91 2.08.98 4.35 1.47 6.65 1.44 1.5.01 2.98-.21 4.41-.65 1.58-.5 3.04-1.33 4.28-2.44 2.45-2.18 3.81-5.35 4.6-8.45M38.23 35.06c.16-.6.27-1.21.32-1.83.26-2.73-.41-5.47-1.89-7.79-.36-.55-.8-1.05-1.29-1.49-.63-.52-1.39-.88-2.19-1.05-.5-.11-1.01-.15-1.51-.11l-.37.03h-.07c-.86.1-1.65.53-2.2 1.2-.39.5-.73 1.04-1 1.61-.33.63-.59 1.3-.77 1.99-.32 1.14-.38 2.34-.2 3.52.25 1.41.85 2.75 1.74 3.88.95 1.23 2.15 2.33 3.67 2.79 1.67.51 3.95.49 5.03-1.1.33-.51.58-1.07.73-1.66m16.9-9.59c.05-1.61-.29-3.2-1-4.65-.38-.7-.85-1.34-1.42-1.9-.68-.7-1.51-1.24-2.42-1.58-.33-.12-.66-.21-1-.27-.45-.07-.91-.1-1.37-.1h-.19c-.21.01-.42.03-.62.08-.5.07-.99.21-1.44.42-.38.2-.73.44-1.04.74-.48.45-.91.97-1.27 1.53-.42.63-.78 1.29-1.07 1.99-.58 1.31-.88 2.71-.91 4.14.03 1.59.47 3.15 1.27 4.52.42.71.9 1.38 1.46 1.98.55.63 1.23 1.13 1.99 1.47 1.37.6 2.9.72 4.34.33.76-.24 1.44-.68 1.97-1.27.81-.95 1.43-2.05 1.83-3.24.54-1.35.84-2.78.88-4.22m20.53 6.12c.06-.76.03-1.52-.09-2.27-.12-.84-.41-1.65-.87-2.36-.29-.42-.65-.78-1.06-1.08-.61-.43-1.29-.74-2-.91-1.82-.45-3.72-.41-5.51.12-.96.27-1.87.72-2.67 1.32-.65.5-1.22 1.09-1.69 1.75-.76 1.04-1.35 2.19-1.76 3.42-.25.71-.45 1.45-.6 2.19-.32 1.31-.36 2.67-.13 3.99.13.69.44 1.32.88 1.85.84.83 1.94 1.34 3.11 1.44 1.4.2 2.82.1 4.18-.31.97-.3 1.91-.72 2.78-1.24 1.15-.65 2.18-1.5 3.05-2.49 1.35-1.51 2.19-3.41 2.41-5.42m7.62 13.68c-.01-.55-.11-1.09-.31-1.6-.12-.28-.29-.53-.48-.76-.04-.07-.1-.14-.17-.18a4.837 4.837 0 0 0-2.74-1.27c-.92-.14-1.85-.16-2.77-.05-.78.09-1.55.32-2.25.67-.57.29-1.09.65-1.55 1.08-.65.59-1.22 1.26-1.7 1.99-.65.95-1.18 1.97-1.57 3.05-.41.93-.5 1.98-.24 2.96.22.55.63 1 1.16 1.27.43.23.89.39 1.37.49.38.08.78.14 1.17.15.98.03 1.96-.08 2.91-.33.72-.19 1.41-.44 2.08-.77.98-.45 1.89-1.05 2.68-1.78.85-.76 1.52-1.69 1.97-2.73.31-.69.46-1.44.45-2.2M71.54 16.15l-.06-.03-.04-.02.19.1-.09-.05z"/><path d="M94.31 61.2c1.03-5.71.97-11.58-.19-17.27-.81-4.09-2.11-8.06-3.88-11.83-2.16-4.57-5.08-8.75-8.61-12.38-2.82-2.86-6.01-5.31-9.5-7.3.57.12 1.13.24 1.7.36.45.1 1.09.12 1.44-.28.35-.41.26-1.08.09-1.51-.28-.71-.72-1.34-1.29-1.85-.57-.52-1.24-.89-1.97-1.1-5.16-1.17-10.43-1.75-15.72-1.73h-.59c-1.73-.38-3.48-.71-5.23-.96-6.28-.94-12.76-1.24-19.12-.38-1.95.21-3.87.63-5.74 1.26-.21.11-.39.28-.49.5-.11.21-.15.45-.11.69.12.68.42 1.31.88 1.82.51.63 1.16 1.14 1.89 1.48.52.27 1.12.35 1.69.2.94-.33 1.9-.59 2.88-.77 1.55-.28 3.12-.48 4.69-.6-.31.1-.62.2-.93.31-4.25 1.4-8.38 3.16-12.33 5.26-4.99 2.75-9.65 6.29-13.35 10.75-4.35 5.31-7.29 11.62-8.54 18.36-1.03 5.58-1 11.31.07 16.89.35 1.84.8 3.67 1.37 5.46.52 1.59 1.17 3.14 1.92 4.64 3.06 6.29 7.98 11.45 13.69 15.23 4.35 2.88 9.12 4.93 13.93 6.88 5.78 2.33 11.72 4.17 18.03 4.39 4.8.15 9.59-.62 14.1-2.29 3.37-1.26 6.58-2.9 9.58-4.89 4.56-2.97 8.56-6.73 11.8-11.1 3.94-5.42 6.62-11.65 7.83-18.23m-7.29 4.64c-.46 1.2-.98 2.38-1.55 3.53A43.444 43.444 0 0 1 74.95 82.7c-1 .84-2.05 1.69-3.12 2.44-3.69 2.61-7.76 4.67-12.06 6.09-1.33.43-2.69.78-4.06 1.04-3.35.61-6.78.74-10.17.39l-.26-.03-.46-.06c-.4-.06-.81-.12-1.21-.19-.76-.13-1.51-.28-2.26-.45-1.37-.31-2.72-.69-4.06-1.13l-.95-.31-.39-.14.42.16-.47-.17c-.6-.22-1.2-.43-1.79-.67-1.04-.42-2.09-.85-3.13-1.27-2.12-.84-4.23-1.75-6.28-2.76-.57-.29-1.14-.57-1.69-.88l-.35-.19c.03 0-.57-.32-.76-.42-1.16-.68-2.29-1.41-3.39-2.2l-.76-.57-.36-.28c-.54-.45-1.07-.91-1.58-1.39-.27-.23-.52-.48-.78-.73l-.36-.36-.03-.04c-.48-.51-.95-1.03-1.39-1.58-.24-.28-.48-.58-.7-.88l-.33-.42c-.06-.09-.18-.26-.26-.36-.36-.55-.72-1.09-1.06-1.66-.43-.72-.83-1.46-1.21-2.21l-.06-.13c-.08-.18-.17-.35-.25-.54-.19-.42-.36-.84-.54-1.26-.34-.85-.62-1.71-.88-2.59-.1-.35-.2-.7-.29-1.06l-.14-.54c0-.06-.03-.12-.05-.18-.23-1-.42-2-.59-3.01-.4-2.46-.6-4.96-.59-7.45 0-.63.02-1.27.05-1.88.31-5.39 1.69-10.68 4.05-15.55 2.36-4.65 5.62-8.78 9.6-12.17.99-.84 2.02-1.65 3.08-2.41 2.96-2.04 6.11-3.79 9.41-5.23 2.7-1.19 5.46-2.19 8.24-3.13 5.58-1.97 11.43-3.02 17.34-3.12 1.47.35 2.92.74 4.37 1.17.45.13.89.27 1.33.42l.69.23.34.11c1.15.43 2.28.85 3.39 1.36.64.29 1.27.59 1.9.9l.99.51.34.19-.21-.11.31.17c.16.08.4.23.08.05 1.39.8 2.73 1.68 4.01 2.63l.2.16.28.22c.35.28.69.56 1.02.84.7.61 1.37 1.23 2.02 1.89.2.19.81.84.03 0 .16.17.33.34.49.52.34.38.68.76 1.02 1.16.63.74 1.23 1.51 1.8 2.31l-.06-.1.09.13c.01.02.03.03.04.05.06.09.17.25.16.25.12.16.23.32.33.49.31.47.62.95.91 1.44.17.29.34.59.51.88.27.48.53.97.78 1.46.07.14.14.28.21.43l.03.06c.17.35.33.71.49 1.08.4.9.77 1.82 1.12 2.74.4 1.09.76 2.2 1.09 3.31.18.61.35 1.23.5 1.85l.11.48c.08.33.15.67.21 1 .61 2.93.92 5.91.94 8.91 0 .71 0 1.42-.04 2.13-.26 4.56-1.24 9.05-2.9 13.31"/><path d="m82.73 26.29-.11-.17-.09-.12-.03-.05c.17.25.23.34.23.34zm24.31 32.35c0-1.13.39-2.22 1.1-3.1.78-1.02 1.63-1.98 2.54-2.88.71-.71 1.41-1.44 2.12-2.19.69-.74 1.25-1.58 1.67-2.5.91-2.82 1.74-5.38 2.5-7.68s1.6-4.87 2.54-7.71c.94-2.85 1.87-5.72 2.81-8.59.94-2.88 1.85-5.64 2.73-8.29.89-2.65 1.63-4.9 2.24-6.76.56-1.61 1.5-2.67 2.81-3.18 1.43-.52 2.95-.78 4.47-.75 1.5-.02 2.99.21 4.41.68.65.23 1.25.61 1.74 1.11.48.5.85 1.1 1.06 1.76l15.86 39.88c.23.53.51 1.04.85 1.51.35.51.76 1.03 1.22 1.59.78.99 1.5 2.03 2.16 3.1.66 1.04 1.01 2.25 1.02 3.48.01.6-.13 1.19-.42 1.71-.28.53-.7.97-1.21 1.28-1.09.73-2.57 1.1-4.44 1.1h-14.19c-1.13.06-2.25-.29-3.15-.98-.39-.34-.7-.76-.9-1.23-.21-.47-.3-.98-.28-1.5-.01-.8.16-1.59.5-2.31.32-.67.69-1.31 1.1-1.92.55-.85 1.01-1.75 1.36-2.69.36-.93.31-2.12-.15-3.52l-.15-.45H124.8l-.3 1.06c-.19.65-.29 1.32-.31 2-.01.52.07 1.05.23 1.55.14.43.34.84.61 1.21.25.35.53.71.84 1.06.41.5.77 1.04 1.1 1.59.36.63.55 1.34.55 2.06-.01.72-.2 1.43-.57 2.05-.36.62-.89 1.13-1.52 1.49-.62.35-1.34.54-2.06.53h-10.93c-1.72 0-3.05-.3-3.98-.91-.45-.28-.82-.67-1.07-1.13-.24-.47-.36-.99-.33-1.52m30.49-20.12-5.31-14.15-4.48 14.15h9.79zm32.68 14.59c.42-.31.75-.71.99-1.17.24-.46.37-.96.37-1.48V17.18c0-.52-.13-1.03-.37-1.49-.23-.46-.57-.85-.99-1.16-.95-.78-1.75-1.73-2.35-2.8-.52-.85-.81-1.81-.85-2.8-.01-.47.08-.94.27-1.37.19-.43.47-.82.83-1.13.79-.67 1.81-1.02 2.85-.98h23.82c3.23-.07 6.45.5 9.45 1.69 2.54 1.03 4.86 2.53 6.83 4.43 1.82 1.76 3.24 3.89 4.17 6.24.93 2.29 1.41 4.75 1.41 7.22 0 2.47-.45 4.92-1.33 7.23-.88 2.34-2.25 4.47-4.02 6.24-1.96 1.92-4.28 3.42-6.83 4.43-2.76 1.12-5.98 1.69-9.68 1.69h-8.27v5.82c0 .51.1 1.02.33 1.48.22.46.54.86.94 1.17.96.79 1.77 1.74 2.4 2.8.53.84.83 1.81.87 2.8.01.47-.08.94-.27 1.37-.19.43-.48.82-.83 1.13-.79.67-1.81 1.03-2.85.98h-16.16c-1.04.05-2.06-.31-2.85-.98-.35-.31-.64-.7-.83-1.13-.19-.43-.28-.9-.27-1.37.04-.99.33-1.95.85-2.8.61-1.07 1.4-2.02 2.35-2.8m16.32-17.55h4.45c1.81.06 3.59-.48 5.05-1.55 1.33-1.02 2.38-2.36 3.03-3.9.69-1.6 1.03-3.33.99-5.07-.01-1.74-.37-3.47-1.06-5.07-.67-1.55-1.75-2.89-3.11-3.89-1.51-1.07-3.34-1.62-5.2-1.55h-4.1l-.05 21.03zm26.82 23.1c0-1.13.39-2.22 1.1-3.1.78-1.02 1.63-1.98 2.54-2.88.71-.71 1.41-1.44 2.12-2.19.69-.74 1.25-1.58 1.67-2.5.91-2.82 1.74-5.38 2.5-7.68s1.6-4.87 2.54-7.71c.93-2.85 1.87-5.72 2.81-8.59.94-2.88 1.85-5.64 2.73-8.29.88-2.65 1.63-4.9 2.24-6.76.57-1.61 1.5-2.67 2.81-3.18 1.43-.52 2.95-.78 4.48-.75 1.49-.02 2.98.21 4.4.68.65.23 1.25.61 1.74 1.11.48.5.85 1.1 1.06 1.76l15.86 39.88c.23.53.51 1.04.85 1.51.35.51.76 1.03 1.21 1.59.79.99 1.51 2.03 2.17 3.1.66 1.04 1.02 2.25 1.02 3.48.02.6-.13 1.19-.41 1.71-.29.53-.71.97-1.22 1.28-1.09.73-2.57 1.1-4.44 1.1h-14.19c-1.13.06-2.25-.29-3.15-.98-.39-.34-.7-.76-.9-1.23-.2-.47-.3-.98-.27-1.5-.02-.8.15-1.59.49-2.31.32-.67.69-1.31 1.1-1.92.55-.85 1.01-1.75 1.36-2.69.36-.93.31-2.11-.14-3.52l-.16-.45h-16.16l-.3 1.06c-.19.65-.3 1.32-.31 2-.01.52.07 1.05.23 1.55.14.43.34.84.61 1.21.25.35.53.71.84 1.06.41.5.78 1.04 1.1 1.59.36.63.55 1.34.55 2.06-.01.72-.2 1.43-.57 2.05-.36.62-.89 1.13-1.52 1.49-.62.35-1.34.54-2.06.53h-10.93c-1.72 0-3.04-.3-3.98-.91-.45-.27-.82-.67-1.06-1.13-.25-.47-.37-.99-.35-1.52m30.5-20.12-5.32-14.15-4.47 14.15h9.79zm29.29 20.19c.05-.98.34-1.93.85-2.76.6-1.09 1.39-2.05 2.35-2.84.41-.31.76-.71.99-1.17.24-.46.37-.96.38-1.48V17.18c-.01-.52-.14-1.03-.38-1.49-.23-.46-.57-.86-.99-1.16-.95-.78-1.75-1.73-2.35-2.8-.52-.85-.81-1.81-.85-2.8-.01-.47.08-.94.27-1.37.19-.43.48-.82.83-1.13.79-.67 1.81-1.02 2.85-.98h14.57c1.97 0 3.52.53 4.65 1.59 1.07.95 1.89 2.14 2.4 3.48l8.57 21.71 8.27-21.86c.24-.57.53-1.12.87-1.63.39-.59.87-1.13 1.4-1.59.61-.5 1.29-.91 2.02-1.21.83-.34 1.72-.5 2.61-.49h13.66c1.04-.04 2.06.31 2.85.98.36.31.64.7.83 1.13.19.43.28.9.27 1.37-.04.99-.33 1.95-.85 2.8-.6 1.07-1.4 2.01-2.35 2.8-.4.31-.72.71-.94 1.17-.23.46-.33.97-.33 1.48v33.29c0 .74.24 1.45.69 2.04.48.64 1 1.24 1.55 1.82.58.6 1.1 1.26 1.56 1.96.46.73.69 1.57.68 2.43.01.47-.08.94-.27 1.37-.19.43-.48.81-.83 1.12-.79.68-1.81 1.03-2.85.99h-16.16c-1.04.04-2.06-.31-2.85-.99-.35-.31-.63-.69-.82-1.12-.19-.43-.29-.9-.27-1.37-.04-.89.2-1.76.68-2.5.45-.65.97-1.25 1.55-1.78.57-.51 1.09-1.08 1.56-1.69.47-.66.71-1.46.68-2.27V22.63l-13.2 34.96c-.31.76-.82 1.42-1.48 1.9-.65.47-1.44.74-2.25.75-.81.02-1.6-.22-2.26-.68-.66-.45-1.16-1.08-1.45-1.81l-12.6-31.63v24.36c0 .51.11 1.02.34 1.48.22.46.55.86.96 1.17.96.8 1.76 1.76 2.38 2.84.52.83.82 1.78.88 2.76.01.47-.08.94-.27 1.37-.19.43-.48.82-.83 1.13-.79.67-1.81 1.02-2.85.98h-10.78c-1.04.04-2.06-.31-2.85-.98-.35-.31-.64-.7-.83-1.13-.19-.43-.28-.9-.27-1.37M115.93 79.92h-5.23l-.99 2.4h-2.67l5.01-11.22h2.57l5.04 11.22h-2.74l-.99-2.4zm-.82-1.97-1.79-4.3-1.78 4.3h3.57zm6.27 4.24c-.58-.13-1.14-.36-1.65-.66l.85-1.8c.44.27.91.47 1.4.6.52.15 1.06.23 1.61.23 1.06 0 1.59-.26 1.59-.78-.01-.12-.05-.24-.12-.34-.08-.09-.19-.16-.31-.19-.43-.14-.88-.23-1.33-.27-.59-.08-1.18-.21-1.75-.37-.46-.14-.87-.39-1.2-.74-.36-.41-.54-.96-.51-1.5 0-.53.16-1.04.48-1.46.36-.45.84-.79 1.38-.98.69-.25 1.41-.37 2.15-.35.61 0 1.22.06 1.82.2.53.1 1.03.29 1.5.55l-.85 1.78c-.75-.43-1.61-.65-2.49-.64-.41-.03-.83.05-1.2.22-.12.05-.22.13-.29.23-.07.11-.11.22-.12.35 0 .13.04.25.12.35.08.1.18.18.31.21.45.14.91.24 1.38.3.58.1 1.16.22 1.74.38.44.14.85.39 1.17.73.35.41.53.94.5 1.47 0 .52-.17 1.02-.48 1.43-.37.45-.86.79-1.41.97-.71.25-1.45.36-2.2.35-.71 0-1.42-.09-2.11-.27m8.55 0c-.57-.13-1.13-.36-1.64-.66l.85-1.8c.44.27.91.47 1.4.6.52.15 1.06.23 1.61.23 1.06 0 1.59-.26 1.59-.78 0-.12-.04-.24-.12-.34-.08-.09-.18-.16-.3-.19-.44-.14-.88-.23-1.34-.27-.59-.08-1.18-.21-1.75-.37-.46-.14-.87-.39-1.2-.74-.35-.41-.54-.95-.5-1.5-.01-.53.16-1.04.47-1.46.36-.45.84-.79 1.38-.98.69-.25 1.42-.37 2.15-.35.61 0 1.23.06 1.83.2.52.1 1.03.29 1.5.55l-.85 1.78c-.76-.43-1.62-.65-2.49-.64-.41-.03-.83.05-1.2.22-.12.05-.22.13-.29.23-.07.1-.11.22-.11.35-.01.13.04.25.11.35.08.1.19.18.31.21.45.14.91.24 1.38.3.59.1 1.17.22 1.74.38.45.14.85.39 1.17.73.35.41.53.94.5 1.47.01.52-.16 1.02-.48 1.43-.37.45-.86.79-1.41.97-.71.25-1.45.36-2.19.35-.72 0-1.43-.09-2.12-.27m9.4-.31c-.7-.36-1.28-.91-1.69-1.58-.4-.7-.61-1.49-.61-2.29 0-.81.21-1.6.61-2.29.41-.68.99-1.22 1.69-1.58.76-.39 1.6-.58 2.45-.57.85-.01 1.69.18 2.45.57.7.36 1.28.9 1.69 1.58.4.69.61 1.48.61 2.29 0 .8-.21 1.59-.61 2.29-.41.67-.99 1.22-1.69 1.58-.76.39-1.6.58-2.45.57-.85.01-1.69-.18-2.45-.57zm4.04-2.13c.4-.49.62-1.11.62-1.74 0-.64-.22-1.25-.62-1.74-.21-.21-.45-.38-.72-.49-.28-.12-.57-.17-.87-.16-.29-.01-.59.04-.86.15-.28.12-.52.28-.73.5-.4.49-.63 1.1-.63 1.74 0 .63.23 1.25.63 1.74.21.21.46.38.73.49.27.11.57.16.86.15.3.01.59-.04.87-.15.27-.11.52-.28.72-.49zm6.52 2.13c-.71-.36-1.31-.92-1.73-1.6-.42-.68-.64-1.47-.64-2.27s.22-1.59.64-2.27c.42-.68 1.02-1.24 1.73-1.6.77-.39 1.62-.58 2.48-.57.83-.02 1.66.18 2.39.57.67.36 1.19.93 1.49 1.63l-1.95 1.04c-.17-.37-.45-.67-.79-.88-.35-.21-.75-.32-1.15-.31-.3-.01-.6.04-.88.15-.28.11-.53.28-.75.49-.41.49-.64 1.11-.64 1.75 0 .64.23 1.26.64 1.75.22.21.47.37.75.49.28.11.58.16.88.15.4.01.8-.1 1.15-.31.34-.21.62-.52.79-.88l1.95 1.06c-.31.68-.83 1.24-1.49 1.6-.73.4-1.55.6-2.39.58-.86.01-1.71-.18-2.48-.57zm7.93-9.79c-.13-.13-.24-.28-.31-.45-.08-.17-.12-.35-.12-.54 0-.19.04-.37.12-.54.07-.17.18-.33.31-.45.31-.28.72-.42 1.13-.4.41-.02.81.11 1.12.38.14.12.25.27.32.43.08.17.11.35.11.53 0 .2-.03.39-.1.57-.08.17-.19.34-.33.47-.31.26-.71.4-1.12.4-.41 0-.81-.14-1.13-.4m-.12 1.6h2.5v8.63h-2.5v-8.63zm11.41.83c.72.64 1.07 1.6 1.08 2.88v4.92h-2.35v-1.07c-.47.8-1.35 1.2-2.64 1.2-.59.01-1.18-.1-1.73-.34-.45-.2-.84-.52-1.11-.93-.26-.4-.4-.87-.39-1.34-.01-.37.06-.73.22-1.06.16-.33.4-.62.69-.83.61-.47 1.54-.7 2.8-.69h2c.02-.24-.02-.47-.11-.69-.08-.22-.22-.42-.39-.58-.43-.32-.96-.47-1.5-.42-.46 0-.92.07-1.35.21-.41.13-.8.33-1.14.59l-.9-1.75c.52-.35 1.09-.61 1.7-.77.66-.18 1.34-.27 2.03-.27 1.34 0 2.37.32 3.09.95m-2.14 5.95c.33-.2.58-.51.71-.87v-.88h-1.72c-1.03 0-1.55.33-1.55 1.01-.01.14.03.29.09.42.07.14.17.25.29.34.31.2.67.3 1.03.28.41.01.8-.1 1.15-.3zm7.27 1.4c-.71-.36-1.31-.92-1.73-1.6-.42-.69-.64-1.47-.64-2.27s.22-1.59.64-2.27c.42-.68 1.02-1.24 1.73-1.6.78-.39 1.63-.59 2.49-.57.83-.02 1.65.17 2.38.57.67.36 1.2.93 1.5 1.63l-1.95 1.03c-.18-.36-.46-.66-.8-.87-.34-.21-.74-.32-1.15-.31-.3-.01-.6.04-.87.15-.28.11-.54.28-.75.49-.41.49-.64 1.11-.64 1.75 0 .64.23 1.26.64 1.75.21.21.47.37.75.48.28.11.57.16.87.15.41.01.8-.09 1.15-.3.34-.21.62-.52.8-.88l1.95 1.06c-.31.68-.84 1.24-1.5 1.6-.72.4-1.55.6-2.38.58-.86.01-1.71-.18-2.49-.57zm.75 4.07c-.23-.05-.46-.13-.67-.25l.39-1.07c.32.16.68.24 1.04.24.56 0 .84-.17.84-.51 0-.35-.26-.47-.78-.47h-.55l.42-1.69H177l-.23.93c.39.01.77.16 1.06.42.23.24.35.56.34.89.01.24-.05.47-.16.67-.11.2-.28.38-.48.5-.52.3-1.12.45-1.72.42-.28 0-.55-.03-.82-.09m13.61-11.42c.72.64 1.08 1.6 1.08 2.88v4.92h-2.34v-1.07c-.48.8-1.35 1.2-2.64 1.2-.6.01-1.18-.1-1.73-.34-.45-.2-.84-.52-1.12-.93-.26-.4-.39-.87-.38-1.34-.02-.37.06-.73.22-1.06.16-.33.39-.62.69-.83.6-.47 1.53-.69 2.8-.69h1.99c.02-.24-.02-.47-.11-.69-.08-.22-.22-.42-.39-.58-.43-.32-.96-.47-1.49-.42-.46 0-.92.07-1.36.21-.41.13-.79.33-1.13.59l-.91-1.75c.52-.35 1.09-.61 1.7-.77.66-.18 1.34-.27 2.03-.27 1.34 0 2.37.32 3.08.95m-2.38-2.05c-.25-.13-.5-.28-.73-.46-.14-.1-.28-.2-.43-.28-.1-.06-.21-.1-.33-.1-.1 0-.2.02-.29.06-.1.04-.18.1-.25.17-.15.19-.23.43-.23.67h-1.27c-.01-.61.18-1.2.54-1.69.16-.2.36-.37.59-.48.24-.11.5-.16.75-.15.26-.01.52.05.75.17.26.13.51.29.75.46.13.11.27.21.42.3.1.06.21.09.33.09.1 0 .2-.02.3-.06.09-.04.17-.09.24-.17.15-.18.24-.4.23-.63h1.27c.02.6-.17 1.18-.53 1.66-.16.2-.37.37-.6.47-.23.11-.49.16-.75.16s-.52-.06-.76-.17m.25 8c.33-.2.58-.51.71-.87v-.89h-1.73c-1.02 0-1.54.34-1.54 1.01 0 .15.03.3.1.43.06.13.16.25.28.33.31.21.67.31 1.04.29.4 0 .79-.1 1.14-.3zm7.25 1.38c-.7-.36-1.29-.91-1.7-1.58-.39-.7-.6-1.49-.6-2.29 0-.81.21-1.6.6-2.29.41-.68 1-1.22 1.7-1.58.76-.39 1.6-.58 2.45-.57.85-.01 1.69.18 2.44.57.7.36 1.29.9 1.7 1.58.4.69.61 1.48.61 2.29 0 .8-.21 1.59-.61 2.29-.41.67-1 1.22-1.7 1.58-.75.39-1.59.58-2.44.57-.85.01-1.69-.18-2.45-.57zm4.03-2.13c.4-.49.62-1.11.62-1.74 0-.64-.22-1.25-.62-1.74-.2-.21-.45-.38-.72-.49-.27-.12-.56-.17-.86-.16-.3-.01-.59.04-.86.16-.28.11-.52.28-.73.49-.4.49-.63 1.1-.63 1.74 0 .63.23 1.25.63 1.74.21.21.45.38.73.49.27.11.57.16.86.15.3.01.59-.04.86-.15.27-.11.52-.28.72-.49zm19.8 2.57-.01-6.73-3.31 5.54h-1.18l-3.29-5.4v6.59h-2.45V71.1h2.16l4.21 6.97 4.15-6.97h2.14l.02 11.22h-2.44zm11.51-7.8c.72.64 1.08 1.6 1.08 2.88v4.92h-2.35v-1.07c-.47.8-1.35 1.2-2.63 1.2-.6.01-1.19-.1-1.73-.34-.46-.19-.84-.52-1.12-.93-.26-.4-.39-.87-.39-1.34-.01-.37.07-.73.22-1.06.16-.33.4-.62.69-.83.61-.47 1.55-.7 2.81-.69h1.99c.02-.24-.02-.47-.11-.69-.08-.22-.22-.42-.39-.58-.43-.32-.96-.47-1.49-.42-.46 0-.92.07-1.36.21-.41.13-.79.33-1.14.59l-.89-1.75c.51-.35 1.09-.61 1.69-.77.66-.18 1.35-.27 2.03-.27 1.35 0 2.37.32 3.09.95m-2.14 5.95c.34-.19.59-.5.71-.87v-.88h-1.72c-1.03 0-1.54.33-1.54 1.01-.01.14.02.29.09.42.07.14.17.25.29.34.3.2.67.3 1.03.28.4.01.8-.1 1.14-.3zm11.06 1.42c-.27.2-.58.34-.9.42-.38.1-.76.14-1.14.14-.87.06-1.72-.23-2.38-.79-.3-.3-.53-.66-.67-1.06-.15-.4-.21-.82-.18-1.24v-3.54h-1.33V73.9h1.33v-2.11h2.51v2.11h2.15v1.93h-2.15v3.5c-.02.31.08.62.28.85.1.1.23.18.37.23.13.06.28.08.43.07.36.01.72-.11 1.01-.32l.67 1.74zm2.81-.02c-.7-.36-1.29-.91-1.69-1.58-.4-.7-.61-1.49-.61-2.29 0-.81.21-1.6.61-2.29.4-.68.99-1.22 1.69-1.58.76-.38 1.6-.57 2.45-.57.85 0 1.68.19 2.45.57.7.36 1.28.9 1.69 1.58.4.69.61 1.48.61 2.29 0 .8-.21 1.59-.61 2.29-.41.67-.99 1.22-1.69 1.58-.77.37-1.6.57-2.45.57-.85 0-1.69-.2-2.45-.57zm4.03-2.13c.41-.49.63-1.11.63-1.74 0-.64-.22-1.25-.63-1.74-.2-.21-.45-.38-.72-.49-.27-.12-.56-.17-.86-.16-.29-.01-.59.04-.86.15-.28.12-.53.29-.73.5-.41.49-.63 1.1-.63 1.74 0 .63.22 1.25.63 1.74.2.21.45.38.73.49.27.11.57.16.86.15.3.01.59-.04.86-.15.27-.11.52-.28.72-.49zm9.22-2.94h-4.55v2h4.55v-2zm11.07-3.11v7.18c0 1.58-.41 2.76-1.23 3.52-.83.78-2.03 1.16-3.62 1.16-.8 0-1.6-.1-2.38-.3-.67-.17-1.31-.47-1.86-.89l1-1.79c.41.32.87.56 1.38.71.55.18 1.12.26 1.69.26.69.06 1.38-.15 1.92-.58.22-.24.39-.52.5-.82.1-.31.14-.63.12-.95v-.37c-.35.36-.78.65-1.25.84-.47.18-.98.26-1.48.23-.76.01-1.51-.17-2.18-.52-.65-.33-1.19-.84-1.57-1.46-.38-.67-.58-1.42-.58-2.18 0-.77.2-1.52.58-2.19.38-.62.92-1.13 1.57-1.46.67-.35 1.42-.53 2.18-.52.54-.03 1.08.06 1.58.27.49.22.93.55 1.28.96v-1.1h2.35zm-3.1 5.57c.4-.41.63-.96.63-1.53 0-.58-.23-1.13-.63-1.53-.45-.4-1.04-.61-1.63-.59-.61-.02-1.19.19-1.64.59-.21.2-.37.43-.48.7-.11.26-.17.54-.17.83 0 .28.06.56.17.83.11.26.27.5.48.7.45.39 1.03.6 1.64.58.59.02 1.18-.19 1.63-.58zm9.03-5.38c.56-.22 1.16-.33 1.77-.32v2.31c-.28-.03-.47-.03-.57-.03-.31-.02-.61.02-.91.12-.29.11-.55.27-.78.48-.22.24-.39.53-.49.84-.11.31-.15.63-.12.96v4.07h-2.51V73.7h2.39v1.13c.31-.42.74-.75 1.22-.94m4.84 7.99c-.7-.36-1.29-.91-1.69-1.58-.4-.7-.61-1.49-.61-2.29 0-.81.21-1.6.61-2.29.4-.68.99-1.22 1.69-1.58.76-.39 1.6-.58 2.45-.57.85-.01 1.69.18 2.45.57.7.36 1.28.9 1.69 1.58.4.69.61 1.48.61 2.29 0 .8-.21 1.59-.61 2.29-.41.67-.99 1.22-1.69 1.58-.76.39-1.6.58-2.45.57-.85.01-1.69-.18-2.45-.57zm4.04-2.13c.4-.49.62-1.11.62-1.74 0-.64-.22-1.25-.62-1.74-.21-.21-.45-.38-.73-.49-.27-.12-.56-.17-.86-.16-.29-.01-.59.04-.86.16-.27.11-.52.28-.72.49-.41.49-.63 1.1-.63 1.74 0 .63.22 1.25.63 1.74.2.21.45.38.72.49.27.11.57.16.86.15.3.01.59-.04.86-.15.28-.11.52-.28.73-.49zm5.63 2.44c-.58-.13-1.13-.35-1.64-.66l.85-1.8c.43.27.9.47 1.4.6.52.15 1.06.23 1.6.23 1.06 0 1.59-.26 1.59-.78 0-.12-.04-.24-.12-.34-.08-.09-.18-.16-.3-.19-.43-.14-.88-.23-1.33-.27-.6-.08-1.18-.21-1.76-.37-.45-.14-.87-.39-1.2-.74-.36-.41-.53-.96-.5-1.5-.01-.53.16-1.04.47-1.46.36-.45.84-.79 1.39-.98.68-.25 1.41-.37 2.14-.35.62 0 1.23.06 1.83.2.52.1 1.03.29 1.5.55l-.85 1.78c-.76-.43-1.62-.65-2.49-.64-.42-.03-.83.05-1.21.22-.11.05-.21.13-.28.23-.07.11-.11.22-.12.35 0 .13.04.25.12.35.07.1.18.18.3.21.45.14.92.24 1.38.3.59.1 1.17.22 1.74.38.45.14.85.39 1.17.73.36.41.53.94.5 1.47.01.52-.16 1.02-.48 1.43-.37.45-.85.79-1.41.97-.7.25-1.44.36-2.19.35-.71 0-1.43-.09-2.12-.27m8.56 0c-.58-.13-1.13-.36-1.64-.66l.85-1.8c.43.27.9.47 1.4.6.52.15 1.06.23 1.6.23 1.06 0 1.6-.26 1.6-.78-.01-.12-.05-.24-.13-.34-.07-.09-.18-.16-.3-.19-.43-.14-.88-.23-1.33-.27-.59-.08-1.18-.21-1.75-.37-.46-.14-.87-.39-1.2-.74-.36-.41-.54-.95-.51-1.5 0-.53.16-1.04.48-1.46.36-.45.84-.79 1.38-.98.69-.25 1.41-.37 2.15-.35.61 0 1.22.06 1.82.2.53.1 1.04.29 1.5.55l-.84 1.78c-.76-.43-1.62-.65-2.49-.64-.42-.03-.83.05-1.21.22-.11.05-.22.13-.29.23-.08.1-.12.22-.13.35 0 .13.04.25.12.35.07.1.18.18.3.21.46.14.92.24 1.39.3.58.1 1.16.22 1.73.38.45.14.86.39 1.18.73.35.41.53.94.49 1.47.01.52-.16 1.02-.48 1.43-.37.45-.85.79-1.4.97-.71.25-1.45.36-2.2.35a8.5 8.5 0 0 1-2.12-.27m16.18-3.48h-6.54c.11.52.41.98.85 1.27.48.32 1.06.49 1.64.47.41 0 .82-.07 1.2-.21.36-.14.69-.35.97-.63l1.34 1.44c-.82.93-2.01 1.4-3.57 1.4-.9.01-1.79-.18-2.59-.57-.72-.35-1.32-.9-1.74-1.58-.4-.7-.6-1.49-.6-2.29s.2-1.59.6-2.29c.4-.67.97-1.22 1.66-1.58.72-.39 1.53-.58 2.35-.57.8-.01 1.59.18 2.3.54.68.36 1.24.9 1.62 1.57.4.72.6 1.54.59 2.36 0 .03-.02.25-.06.67m-5.86-2.77c-.4.33-.65.8-.71 1.32h4.26c-.06-.51-.31-.98-.71-1.31-.39-.33-.9-.51-1.41-.49-.52-.02-1.03.15-1.43.48zm15.42-1.41c.66.64.99 1.59.99 2.85v4.94h-2.51v-4.55c.04-.55-.12-1.09-.45-1.53-.17-.18-.37-.31-.6-.4-.22-.09-.46-.12-.7-.11-.28-.01-.56.03-.82.13-.26.11-.5.26-.69.46-.41.48-.61 1.11-.57 1.74v4.26h-2.5V73.7h2.39v1.01c.34-.37.77-.66 1.24-.85.52-.2 1.07-.3 1.62-.29.48-.02.95.05 1.4.21.44.17.85.42 1.2.74m4.06 7.67c-.58-.13-1.13-.36-1.64-.66l.84-1.8c.44.27.91.47 1.41.6.52.15 1.06.23 1.6.23 1.06 0 1.59-.26 1.59-.78 0-.12-.04-.24-.12-.34-.07-.09-.18-.16-.3-.19-.43-.14-.88-.23-1.33-.27-.59-.08-1.18-.21-1.75-.37-.46-.14-.87-.39-1.2-.74-.36-.41-.54-.95-.51-1.5-.01-.53.16-1.04.48-1.46.36-.45.84-.79 1.38-.98.69-.25 1.41-.37 2.14-.35.62 0 1.23.06 1.83.2.53.1 1.03.29 1.5.55l-.85 1.78c-.76-.43-1.62-.65-2.49-.64-.41-.03-.83.05-1.2.22-.12.05-.22.13-.29.23-.07.1-.11.22-.11.35-.01.13.03.25.11.35.08.1.19.18.31.21.45.14.91.24 1.38.3.59.1 1.17.22 1.74.38.45.14.85.39 1.17.73.35.41.53.94.5 1.47 0 .52-.16 1.02-.48 1.43-.37.45-.86.79-1.41.97-.71.25-1.45.36-2.19.35-.72 0-1.43-.09-2.12-.27m16.16-3.48h-6.54c.11.52.41.97.85 1.27.48.32 1.06.49 1.64.47.41 0 .81-.07 1.2-.21.36-.14.69-.35.97-.63l1.33 1.44c-.81.93-2 1.4-3.57 1.4-.89.01-1.78-.18-2.58-.57-.72-.35-1.32-.9-1.74-1.58-.4-.7-.6-1.49-.6-2.29s.2-1.59.6-2.29c.39-.67.97-1.22 1.66-1.58.72-.39 1.53-.58 2.35-.57.8-.01 1.59.18 2.3.54.68.36 1.24.9 1.61 1.57.41.72.61 1.54.59 2.36 0 .03 0 .26-.04.67m-5.87-2.77c-.4.33-.65.8-.71 1.32h4.26c-.06-.51-.32-.98-.71-1.31-.39-.33-.9-.51-1.41-.49-.52-.02-1.03.15-1.43.48zm-218.2 11.45c.69.3 1.28.79 1.7 1.41.39.66.59 1.4.59 2.16 0 .76-.2 1.51-.59 2.16-.42.63-1.01 1.12-1.7 1.41-.82.34-1.7.51-2.59.49h-2.27v3.1h-2.6V86.89h4.87c.89-.02 1.77.15 2.59.5zm-.95 5.01c.2-.18.36-.4.47-.65.11-.24.16-.51.14-.78.02-.28-.03-.55-.14-.8-.11-.25-.27-.48-.47-.66-.52-.37-1.15-.54-1.79-.5h-2.11v3.89h2.11c.64.05 1.27-.13 1.79-.5zm8.53-2.72c.55-.22 1.15-.33 1.75-.32v2.31c-.27-.02-.46-.03-.56-.03-.3-.02-.61.02-.9.13-.29.1-.56.26-.79.47-.22.24-.38.53-.49.84-.1.31-.15.64-.12.96v4.07h-2.51v-8.62h2.4v1.14c.31-.42.73-.75 1.21-.95m4.84 7.99c-.7-.35-1.29-.9-1.69-1.57-.4-.7-.61-1.49-.61-2.3 0-.8.21-1.59.61-2.29.41-.67.99-1.22 1.69-1.58.76-.38 1.6-.57 2.45-.57.85 0 1.69.19 2.45.57.7.36 1.28.91 1.69 1.58.4.7.61 1.49.61 2.29 0 .81-.21 1.6-.61 2.3-.4.67-.99 1.21-1.69 1.57-.76.38-1.6.57-2.45.57-.85 0-1.69-.19-2.45-.57zm4.04-2.11c.4-.49.62-1.11.62-1.74 0-.63-.22-1.25-.62-1.74-.21-.21-.45-.38-.72-.49-.28-.11-.57-.17-.87-.16-.29-.01-.59.04-.86.16-.27.11-.52.28-.73.49-.4.49-.62 1.11-.62 1.74 0 .64.22 1.25.62 1.74.21.21.46.38.73.49.27.11.57.17.86.16.3.01.59-.05.87-.16.27-.11.52-.28.72-.49zm10.41 2.14c-.27.19-.58.34-.91.42-.37.09-.75.14-1.13.13-.87.06-1.73-.22-2.39-.78-.3-.3-.53-.67-.67-1.06-.15-.4-.21-.82-.18-1.25v-3.54h-1.33v-1.93h1.33v-2.11h2.51v2.11h2.15v1.93h-2.15v3.51c-.02.31.08.61.28.84.1.11.23.19.37.24.13.05.28.07.43.06.36.01.72-.1 1.01-.32l.68 1.75zm9.56-3.19h-6.54c.11.51.41.97.85 1.27.48.32 1.05.48 1.64.46.4.01.81-.06 1.19-.2.37-.14.7-.36.97-.64l1.34 1.45c-.82.93-2 1.39-3.57 1.39-.9.02-1.78-.18-2.59-.57-.72-.35-1.32-.89-1.74-1.57-.39-.7-.6-1.49-.6-2.29s.21-1.59.6-2.29c.4-.67.97-1.22 1.66-1.59.72-.37 1.52-.57 2.33-.57.81-.01 1.61.18 2.33.55.68.35 1.24.9 1.62 1.56.4.72.6 1.54.58 2.36 0 .04 0 .26-.04.68m-5.87-2.78c-.4.34-.65.81-.71 1.32h4.24c-.07-.51-.32-.98-.71-1.31-.4-.33-.9-.5-1.41-.49-.52-.01-1.03.16-1.43.48m13.16 5.97c-.27.19-.58.34-.91.42-.37.09-.75.14-1.13.13-.87.06-1.72-.22-2.38-.78-.3-.3-.53-.67-.68-1.06-.14-.4-.2-.82-.17-1.25v-3.54h-1.34v-1.93h1.34v-2.11h2.51v2.11h2.15v1.93h-2.15v3.51c-.03.31.08.61.28.84.1.11.23.19.37.24.13.05.28.07.43.06.36.01.72-.1 1.01-.32l.67 1.75zm2.81-.03c-.7-.36-1.29-.9-1.7-1.57-.39-.7-.6-1.49-.6-2.3 0-.8.21-1.59.6-2.29.41-.67 1-1.22 1.7-1.58.76-.38 1.6-.57 2.45-.57.84 0 1.68.19 2.44.57.7.36 1.29.91 1.69 1.58.4.7.61 1.49.61 2.29 0 .81-.21 1.6-.61 2.3-.4.67-.99 1.21-1.69 1.57-.76.38-1.6.57-2.44.57-.85 0-1.69-.19-2.45-.57zm4.03-2.11c.4-.49.62-1.11.62-1.74 0-.63-.22-1.25-.62-1.74-.2-.21-.45-.38-.72-.49-.28-.11-.57-.17-.86-.16-.3-.01-.59.05-.87.16-.27.11-.52.28-.72.49-.41.49-.63 1.11-.63 1.74 0 .64.22 1.25.63 1.74.2.21.45.38.72.49.28.11.57.16.87.16.29.01.59-.05.86-.16s.52-.28.72-.49zm8.44-5.88c.56-.22 1.16-.33 1.76-.32v2.31c-.27-.02-.47-.03-.56-.03-.31-.02-.62.02-.91.13-.29.1-.56.26-.78.47-.22.24-.39.53-.49.84-.11.31-.15.64-.12.96v4.07h-2.51v-8.62h2.39v1.14c.31-.42.73-.75 1.22-.95m9.79.63c.71.64 1.07 1.6 1.07 2.88v4.92h-2.34v-1.07c-.48.8-1.35 1.2-2.64 1.2-.6.02-1.19-.1-1.73-.34-.46-.19-.84-.51-1.12-.93-.26-.4-.39-.87-.38-1.34-.02-.37.06-.73.22-1.06.15-.33.39-.61.69-.83.6-.46 1.54-.69 2.8-.69h2c.01-.24-.03-.47-.11-.69-.09-.22-.22-.42-.39-.58-.43-.32-.97-.47-1.5-.42-.46 0-.92.07-1.36.21-.41.13-.79.33-1.13.59l-.9-1.75c.51-.35 1.09-.61 1.69-.77.66-.18 1.35-.27 2.04-.27 1.33 0 2.36.32 3.08.95m-2.12 5.95c.34-.2.59-.51.71-.87v-.88h-1.72c-1.03 0-1.54.33-1.54 1.01-.01.14.02.29.09.42.07.14.16.25.28.34.31.2.67.3 1.04.28.4.01.8-.1 1.14-.3zm18.83-10.05v11.89h-2.4v-.99c-.33.38-.75.68-1.22.87-.46.2-.97.28-1.48.25-.77.01-1.53-.18-2.21-.54-.66-.36-1.19-.9-1.55-1.56-.37-.72-.56-1.52-.56-2.34 0-.81.19-1.61.56-2.34.36-.65.89-1.19 1.55-1.55.68-.37 1.44-.56 2.21-.55.48-.03.97.06 1.41.24.45.18.85.45 1.18.8v-4.18h2.51zm-3.09 9.32c.4-.49.63-1.1.63-1.74 0-.63-.23-1.25-.63-1.74-.2-.21-.45-.38-.72-.49-.27-.11-.56-.16-.86-.16-.29-.01-.59.05-.86.16s-.52.28-.72.49c-.41.49-.63 1.11-.63 1.74 0 .64.22 1.25.63 1.74.2.22.45.38.72.49.27.11.57.17.86.16.3.01.59-.05.86-.16s.52-.27.72-.49zm7.06 2.13c-.7-.36-1.28-.9-1.69-1.57-.4-.7-.61-1.49-.61-2.3 0-.8.21-1.59.61-2.29.41-.67.99-1.22 1.69-1.58.76-.39 1.6-.58 2.46-.57.85-.01 1.69.18 2.44.57.7.36 1.29.91 1.69 1.58.4.7.61 1.49.61 2.29 0 .81-.21 1.6-.61 2.3-.4.67-.99 1.21-1.69 1.57-.75.39-1.59.59-2.44.57-.86.02-1.7-.18-2.46-.57zm4.04-2.11c.4-.49.62-1.11.62-1.74 0-.63-.22-1.25-.62-1.74-.2-.21-.45-.38-.72-.49-.28-.11-.57-.17-.86-.16-.3-.01-.59.04-.87.16-.27.11-.52.28-.73.49-.4.49-.62 1.11-.62 1.74 0 .64.22 1.25.62 1.74.21.21.46.38.73.49.28.11.57.17.87.16.29.01.58-.05.86-.16.27-.11.52-.28.72-.49zm5.65 2.42c-.58-.13-1.14-.36-1.65-.67l.85-1.79c.43.27.91.47 1.4.6.52.15 1.06.23 1.6.23 1.07 0 1.6-.26 1.6-.79-.01-.12-.05-.24-.13-.33-.07-.1-.18-.16-.3-.19-.43-.14-.88-.23-1.33-.27-.6-.09-1.18-.21-1.76-.38-.45-.13-.87-.39-1.19-.73-.36-.42-.54-.96-.51-1.51-.01-.52.16-1.03.48-1.45.35-.45.83-.79 1.38-.98.68-.26 1.41-.38 2.14-.36.62 0 1.23.07 1.83.2.52.11 1.03.29 1.5.56l-.85 1.77c-.76-.42-1.62-.64-2.49-.64-.41-.02-.83.05-1.21.23-.11.05-.21.13-.28.23-.07.1-.11.22-.12.34 0 .13.04.26.12.36.07.1.18.17.3.21.46.14.92.24 1.39.3.58.09 1.16.22 1.73.38.45.13.86.38 1.18.73.35.4.53.93.5 1.47 0 .52-.17 1.02-.49 1.43-.36.45-.85.78-1.4.97-.71.24-1.45.36-2.2.34-.71 0-1.42-.08-2.12-.26m19.89-2.27h-5.23l-1 2.4h-2.66l5.01-11.22h2.57l5.03 11.22h-2.73l-.99-2.4zm-.83-1.97-1.78-4.3-1.78 4.3h3.56zm13.4-3.42c.66.65.99 1.6.99 2.86v4.94h-2.51v-4.56c.05-.55-.11-1.09-.44-1.53-.17-.17-.38-.31-.6-.4-.23-.08-.47-.12-.71-.1-.28-.02-.55.03-.82.13-.25.1-.49.25-.69.45-.4.48-.61 1.11-.56 1.74v4.27h-2.51v-8.63h2.4v1.01c.34-.37.76-.66 1.23-.84.52-.21 1.07-.31 1.63-.3.47-.02.95.05 1.4.22.44.16.85.41 1.19.74m3.39-2.43c-.14-.13-.25-.28-.32-.45-.08-.18-.12-.36-.12-.55 0-.18.04-.37.12-.54.07-.17.18-.32.32-.45.3-.28.71-.43 1.12-.42.41-.02.81.12 1.13.38.14.12.24.27.32.44.07.16.11.34.1.53.01.19-.03.38-.1.56-.07.17-.18.33-.32.47-.15.14-.33.25-.52.32-.2.07-.4.11-.61.1-.41.01-.82-.14-1.12-.42m-.13 1.6h2.51v8.63h-2.51v-8.63zm18.49.86c.64.63.96 1.59.96 2.86v4.94h-2.51v-4.56c.05-.54-.1-1.08-.42-1.53-.15-.17-.34-.3-.55-.39-.21-.09-.43-.13-.66-.11-.26-.02-.52.03-.76.13-.24.09-.46.25-.64.44-.38.48-.56 1.08-.52 1.69v4.33h-2.49v-4.56c0-1.35-.55-2.03-1.64-2.03-.26-.01-.52.03-.76.13s-.45.25-.63.44c-.37.48-.56 1.08-.51 1.69v4.33h-2.51v-8.63h2.39v.99c.33-.37.73-.66 1.19-.84.48-.2 1.01-.3 1.53-.29.58-.01 1.14.11 1.66.36.49.24.9.6 1.19 1.05.36-.45.81-.81 1.34-1.04.56-.25 1.16-.38 1.78-.37.47-.03.94.05 1.38.21.45.17.85.42 1.2.74m9.75.01c.72.64 1.07 1.6 1.08 2.88v4.92h-2.35v-1.07c-.47.8-1.35 1.2-2.64 1.2-.59.02-1.18-.1-1.73-.34-.45-.19-.84-.51-1.11-.93-.26-.4-.39-.87-.39-1.34-.01-.37.06-.73.22-1.06.16-.33.4-.61.69-.83.61-.46 1.54-.69 2.8-.69h2c.02-.24-.02-.47-.11-.69-.08-.22-.22-.42-.39-.58-.43-.32-.96-.47-1.5-.42-.46 0-.91.07-1.35.21-.41.13-.8.33-1.14.59l-.9-1.75c.52-.35 1.09-.61 1.7-.77.66-.18 1.34-.27 2.03-.27 1.34 0 2.37.32 3.09.95m-2.14 5.95c.33-.2.58-.51.7-.87v-.88h-1.71c-1.04 0-1.55.33-1.55 1.01 0 .14.03.29.09.42.07.14.17.25.29.34.31.2.67.3 1.04.28.4.01.79-.1 1.14-.3zm5.63-8.38c-.14-.13-.25-.28-.32-.46-.08-.17-.11-.35-.11-.54 0-.18.03-.37.11-.54.07-.17.18-.32.32-.45.3-.28.71-.43 1.12-.42.41-.02.82.12 1.13.38.14.12.25.27.32.44.07.16.11.34.1.53.01.19-.02.38-.1.56-.07.17-.18.33-.32.47-.15.14-.33.25-.52.32s-.4.11-.61.1c-.41.01-.82-.14-1.12-.42m-.13 1.6h2.51v8.63h-2.51v-8.63zm5.64 8.52c-.58-.13-1.13-.36-1.64-.67l.85-1.79c.43.27.9.47 1.4.6.52.15 1.06.23 1.6.23 1.07 0 1.59-.26 1.59-.79 0-.12-.04-.24-.12-.33-.07-.1-.18-.16-.3-.19-.43-.14-.88-.23-1.33-.27-.59-.09-1.18-.21-1.76-.38-.45-.13-.87-.39-1.19-.73-.36-.42-.54-.96-.51-1.51-.01-.52.16-1.03.48-1.45.35-.45.83-.79 1.38-.98.68-.26 1.41-.38 2.14-.36.62 0 1.23.07 1.83.2.52.11 1.03.29 1.5.56l-.85 1.77c-.76-.42-1.62-.64-2.49-.64-.41-.02-.83.05-1.21.23-.11.05-.21.13-.28.23-.07.1-.11.22-.12.34 0 .13.04.26.12.36.07.1.18.17.31.21.45.14.91.24 1.38.3.58.09 1.16.22 1.73.38.45.13.86.38 1.18.73.35.4.53.93.49 1.47.01.52-.16 1.02-.48 1.43-.37.45-.85.78-1.4.97-.71.24-1.45.36-2.2.34-.71 0-1.42-.09-2.12-.26"/></g></svg>