<svg xmlns="http://www.w3.org/2000/svg" width="56" height="56"><g class="layer"><path d="M40.37 43.08c.47-1.83.68-3.73.62-5.62-.08-2.49-.58-4.94-1.46-7.27-.54-1.41-1.1-2.82-1.77-4.18-.38-.81-.84-1.59-1.35-2.32-.62-.87-1.39-1.62-2.27-2.22-.97-.64-2.06-1.08-3.2-1.3-2.28-.43-4.65 0-6.86.63-1.49.41-2.92.99-4.38 1.52-1.33.47-2.63 1.01-3.91 1.62-1.48.71-2.86 1.61-4.1 2.68-1.29 1.13-2.36 2.5-3.15 4.02-.68 1.22-1.16 2.55-1.42 3.93-.26 1.48-.09 3.01.48 4.4.5 1.16 1.23 2.21 2.14 3.08.7.64 1.51 1.15 2.41 1.48.94.34 1.93.57 2.93.68 1.17.14 2.35.12 3.52-.04.93-.12 1.8-.39 2.72-.51h.22l.2.07c.03.01.06.02.1.03l.06.03-.05-.02c.08.03.16.07.23.11l.1.06.05.03h.02l.11.07.39.33c.3.27.57.55.85.84.75.76 1.55 1.49 2.35 2.17.76.69 1.6 1.28 2.51 1.75 1.24.59 2.6.89 3.98.87.89.01 1.78-.13 2.63-.39.95-.3 1.82-.8 2.56-1.47 1.47-1.31 2.28-3.22 2.75-5.09M22.77 19c.1-.39.16-.79.2-1.2.07-.82.02-1.66-.14-2.47-.19-.92-.53-1.8-1.01-2.6-.21-.36-.47-.69-.77-.97-.38-.34-.83-.57-1.31-.67-.3-.08-.61-.1-.91-.08l-.22.02h-.04c-.52.06-1 .35-1.33.78-.23.33-.43.68-.59 1.05-.2.41-.36.85-.47 1.3-.19.74-.23 1.52-.12 2.29.15.92.51 1.79 1.05 2.53.54.84 1.31 1.47 2.2 1.82 1.01.34 2.37.34 3.02-.72.2-.33.35-.7.44-1.08M32 12.87c.03-.92-.17-1.83-.59-2.66-.21-.4-.49-.77-.82-1.09-.4-.4-.88-.71-1.41-.91-.19-.07-.38-.12-.58-.15-.27-.04-.53-.06-.8-.06h-.11c-.12.01-.25.02-.37.05-.29.04-.57.12-.83.25-.22.11-.43.25-.61.42-.28.26-.52.56-.73.89-.25.36-.45.74-.62 1.14-.34.75-.52 1.55-.53 2.37.01.91.27 1.8.74 2.59.24.4.52.79.85 1.13.32.36.71.65 1.16.84.79.35 1.68.41 2.52.19.44-.13.84-.38 1.15-.72.47-.55.83-1.18 1.07-1.86.31-.77.48-1.59.5-2.41m12.99 3.32c.03-.46.01-.92-.06-1.37-.07-.51-.25-1-.52-1.44-.17-.25-.38-.47-.63-.65-.36-.26-.77-.45-1.21-.55-.53-.13-1.07-.2-1.62-.19-.58.01-1.16.09-1.71.26-.59.17-1.13.44-1.61.8-.4.3-.74.66-1.03 1.06-.46.63-.82 1.33-1.06 2.08-.15.43-.27.87-.36 1.32-.2.8-.22 1.62-.08 2.42.08.42.26.81.53 1.13.51.5 1.17.81 1.88.87.85.12 1.71.06 2.52-.19.59-.18 1.16-.43 1.69-.75.69-.4 1.31-.91 1.84-1.51.81-.92 1.32-2.07 1.45-3.29m3.99 8.48c0-.38-.07-.75-.18-1.09-.07-.19-.16-.36-.27-.52-.03-.05-.06-.09-.1-.12-.43-.48-.99-.78-1.58-.87-.52-.1-1.06-.11-1.59-.03-.81.11-1.58.53-2.18 1.19-.37.4-.7.86-.98 1.35-.37.65-.67 1.35-.89 2.09-.24.64-.28 1.35-.13 2.03.13.37.36.67.66.85.25.16.51.27.79.33.22.07.45.1.67.11.56.02 1.12-.06 1.67-.22.41-.13.81-.31 1.19-.53.56-.31 1.08-.72 1.54-1.22.49-.51.87-1.14 1.13-1.85.17-.47.26-.99.26-1.5"/><path d="M55.57 34.06c.61-3.43.57-6.95-.12-10.37-.48-2.46-1.25-4.84-2.31-7.1-1.29-2.75-3.03-5.26-5.15-7.44-1.67-1.71-3.58-3.19-5.66-4.38.34.07.67.14 1.01.21.14.05.3.06.45.03.15-.03.29-.1.41-.2.08-.13.13-.28.14-.44.01-.16-.02-.32-.09-.46-.17-.42-.43-.8-.77-1.11-.34-.31-.74-.53-1.18-.66-3.07-.7-6.22-1.05-9.37-1.04h-.36C31.54.87 30.5.68 29.45.52 25.67-.09 21.83-.16 18.04.3c-1.17.12-2.32.37-3.43.75-.13.06-.23.17-.29.29-.07.13-.09.28-.06.42.06.41.24.79.52 1.1.3.38.69.68 1.13.88.31.17.67.22 1.02.13.56-.2 1.13-.36 1.71-.47.93-.17 1.86-.29 2.79-.36l-.55.19c-2.54.84-5.01 1.89-7.37 3.16-3.03 1.63-5.73 3.82-7.96 6.45-2.6 3.19-4.35 6.98-5.1 11.03-.61 3.35-.6 6.79.04 10.14.21 1.1.48 2.2.82 3.27.31.96.69 1.89 1.14 2.8 1.83 3.77 4.77 6.87 8.17 9.14 2.6 1.73 5.45 2.96 8.32 4.13 3.45 1.4 6.99 2.51 10.76 2.64 2.87.09 5.73-.38 8.42-1.38 2.01-.75 3.93-1.74 5.71-2.93 2.73-1.79 5.11-4.05 7.05-6.67 2.35-3.26 3.95-7 4.68-10.95m-4.36 2.8c-.28.71-.59 1.42-.93 2.11-1.54 3.06-3.67 5.77-6.27 8-.62.52-1.23 1.01-1.85 1.47-2.21 1.57-4.63 2.8-7.2 3.66-.8.25-1.61.46-2.43.62-2 .36-4.04.44-6.07.23h-.15l-.28-.04c-.24-.03-.48-.07-.72-.11-.45-.08-.9-.17-1.35-.27-.82-.19-1.63-.42-2.42-.68l-.57-.19-.23-.08.25.09-.28-.1c-.36-.13-.71-.26-1.07-.4-.61-.24-1.23-.5-1.85-.76-1.27-.52-2.53-1.05-3.75-1.66-.34-.17-.68-.34-1.02-.52l-.21-.12-.45-.25c-.68-.41-1.36-.85-2.01-1.32-.15-.12-.31-.23-.46-.35l-.21-.17c-.31-.27-.64-.54-.95-.83-.15-.14-.31-.31-.46-.44l-.21-.21-.03-.03c-.28-.3-.56-.62-.82-.95-.14-.17-.29-.35-.42-.53-.07-.08-.13-.17-.2-.26-.06-.08-.1-.15-.15-.21-.22-.31-.43-.66-.64-1-.25-.43-.49-.88-.72-1.33l-.03-.07c-.05-.11-.1-.22-.15-.31-.11-.25-.22-.51-.31-.76-.2-.51-.37-1.03-.53-1.56-.06-.21-.12-.42-.17-.64-.03-.1-.06-.21-.09-.31l-.02-.1c-.14-.6-.26-1.2-.36-1.81-.23-1.48-.35-2.98-.35-4.48 0-.37 0-.75.03-1.12.19-3.25 1.01-6.42 2.42-9.34 1.41-2.79 3.36-5.28 5.73-7.31.59-.51 1.21-.99 1.86-1.45 1.76-1.22 3.64-2.28 5.61-3.14 1.61-.72 3.26-1.32 4.92-1.89 1.56-.54 3.16-.97 4.78-1.29 1.84-.33 3.7-.53 5.57-.58.88.21 1.75.45 2.61.71l.79.24.42.14.19.07c.69.25 1.37.52 2.04.81.38.17.76.36 1.13.55.2.1.39.2.59.31l.2.11-.12-.07.15.08.04.03c.09.05.23.13.04.02.83.48 1.63 1.01 2.4 1.59l.11.09.17.13c.21.17.41.34.62.52.41.36.82.74 1.2 1.13.12.11.49.51 0 0l.31.31c.21.23.41.46.62.69.38.45.74.91 1.08 1.39l-.04-.06.06.08.02.03c.03.05.07.1.1.15.06.1.13.2.19.29.19.29.37.58.54.87.11.18.21.35.31.53.16.29.31.58.47.88l.12.25.02.04c.1.21.2.43.31.65.24.54.46 1.09.67 1.65.24.65.46 1.31.65 1.98.11.37.21.74.31 1.11l.06.29c.05.2.09.4.13.6.36 1.76.55 3.55.56 5.35 0 .43 0 .85-.02 1.28-.16 2.74-.75 5.43-1.73 7.99"/></g></svg>