<svg xmlns="http://www.w3.org/2000/svg" width="56" height="56"><g class="layer"><path d="M40.4 43a22.6 22.6 0 0 0-.8-12.9 49.4 49.4 0 0 0-3.2-6.4 8.9 8.9 0 0 0-5.5-3.5 15 15 0 0 0-6.8.6c-1.5.4-3 1-4.4 1.5l-4 1.6a28 28 0 0 0-4 2.7 13.8 13.8 0 0 0-3.2 4 13 13 0 0 0-1.4 4 8 8 0 0 0 .5 4.4 9.4 9.4 0 0 0 2.1 3 6 6 0 0 0 2.4 1.5 12.7 12.7 0 0 0 6.5.7l2.7-.5h.6l.2.2h.1l.2.1.3.4.9.8a36.8 36.8 0 0 0 4.9 4 9 9 0 0 0 6.6.4 7 7 0 0 0 2.5-1.5 10 10 0 0 0 2.8-5M22.8 19a8 8 0 0 0 0-3.7c-.2-.9-.5-1.8-1-2.6l-.8-1c-.3-.3-.8-.5-1.3-.6h-1.1a2 2 0 0 0-1.4.7 6 6 0 0 0-.5 1 6.5 6.5 0 0 0-.6 3.6 6 6 0 0 0 1 2.6c.6.8 1.3 1.5 2.2 1.8 1 .3 2.4.3 3-.7l.5-1.1m9.2-6.1a6 6 0 0 0-.6-2.7 4.3 4.3 0 0 0-2.2-2 3 3 0 0 0-.6-.1l-.8-.1h-.5a2.7 2.7 0 0 0-1.4.7l-.7 1-.7 1c-.3.8-.5 1.6-.5 2.4 0 1 .3 1.8.7 2.6l.9 1.1c.3.4.7.7 1.1.9.8.3 1.7.4 2.6.2l1.1-.7c.5-.6.8-1.2 1-2A7 7 0 0 0 32 13m13 3.2v-1.4c-.2-.5-.3-1-.6-1.4l-.6-.7-1.2-.5a6.3 6.3 0 0 0-3.4 0 5 5 0 0 0-2.6 2c-.5.5-.8 1.3-1 2l-.4 1.3c-.2.8-.3 1.6-.1 2.4 0 .5.2.8.5 1.2a3 3 0 0 0 1.9.8c.8.2 1.7.1 2.5-.2a7.5 7.5 0 0 0 3.5-2.2 6 6 0 0 0 1.5-3.3m4 8.5c0-.4 0-.8-.2-1.1a2.3 2.3 0 0 0-.4-.7c-.4-.4-1-.7-1.5-.8-.6-.1-1.1-.1-1.6 0-.8 0-1.6.5-2.2 1.1l-1 1.4a10 10 0 0 0-.9 2c-.2.7-.3 1.4-.1 2.1.1.4.3.7.6.9l.8.3.7.1a5.3 5.3 0 0 0 2.9-.8 6.1 6.1 0 0 0 2.6-3l.3-1.5"/><path d="M55.6 34a30.4 30.4 0 0 0-2.4-17.5 27.3 27.3 0 0 0-11-11.6l1 .2h.5c.1 0 .3 0 .4-.2a1 1 0 0 0 0-.9 3 3 0 0 0-1.9-1.8c-3-.7-6.2-1-9.4-1h-.3A46.3 46.3 0 0 0 18 .3a14 14 0 0 0-3.4.8l-.3.2v.5c0 .4.2.8.5 1l1.1 1c.3.1.7.2 1 0l1.7-.4 2.8-.4-.5.2a46 46 0 0 0-7.4 3.2 24.5 24.5 0 0 0-13 17.5 27.7 27.7 0 0 0 2 16.2c1.8 3.8 4.7 6.9 8.1 9.1A46.4 46.4 0 0 0 29.7 56a24 24 0 0 0 8.4-1.4 27.7 27.7 0 0 0 17.5-20.5m-4.4 2.8-1 2a25.8 25.8 0 0 1-17.7 13.8c-2 .4-4 .5-6 .2H26l-.7-.1a32.2 32.2 0 0 1-3.8-1l-.5-.1-.3-.1h.3-.3l-1-.4-2-.8c-1.2-.5-2.5-1-3.7-1.7l-1-.5h-.2l-.5-.3a29 29 0 0 1-2-1.4l-.4-.3-.2-.2-1-.8-.4-.5-.3-.2-.8-1-.4-.5-.2-.2-.2-.2-.6-1-.7-1.4-.2-.4-.3-.7-.6-1.6V37l-.1-.3v-.1a27.6 27.6 0 0 1-.7-6.3V29A23.7 23.7 0 0 1 13 11c1.8-1.3 3.6-2.3 5.6-3.2a58.7 58.7 0 0 1 9.7-3.2c1.8-.3 3.7-.5 5.6-.5l2.6.7.8.2.4.2h.2A36 36 0 0 1 41.7 7l.2.1h.1c.1.1.2.2 0 0 .9.5 1.7 1 2.5 1.7l.2.2a28.5 28.5 0 0 1 1.9 1.6c0 .1.4.5 0 0l.3.3.6.7 1 1.4h.1l.1.2.2.3a20.6 20.6 0 0 1 .8 1.4l.5.9.1.2.4.7a30 30 0 0 1 1.6 4.8v.3l.2.6c.3 1.7.5 3.5.5 5.3V29a25 25 0 0 1-1.7 8"/></g></svg>